{
	"asset":{
		"generator":"Khronos glTF Blender I/O v4.3.47",
		"version":"2.0"
	},
	"extensionsUsed":[
		"KHR_materials_specular"
	],
	"scene":0,
	"scenes":[
		{
			"name":"Scene",
			"nodes":[
				0
			]
		}
	],
	"nodes":[
		{
			"mesh":0,
			"name":"Plane",
			"rotation":[
				0,
				0.6821349859237671,
				0,
				0.7312262654304504
			],
			"scale":[
				0.09182644635438919,
				0.0918264389038086,
				0.09182644635438919
			]
		}
	],
	"materials":[
		{
			"doubleSided":true,
			"emissiveFactor":[
				0.0014452791074290872,
				0.1572764664888382,
				0
			],
			"extensions":{
				"KHR_materials_specular":{
					"specularColorFactor":[
						2.0,
						2.0,
						2.0
					]
				}
			},
			"name":"Material.003",
			"pbrMetallicRoughness":{
				"baseColorFactor":[
					0,
					0.8162745833396912,
					0.10781882703304291,
					1
				],
				"metallicFactor":0
			}
		},
		{
			"doubleSided":true,
			"name":"white.001",
			"pbrMetallicRoughness":{
				"baseColorFactor":[
					0.800000011920929,
					0.800000011920929,
					0.800000011920929,
					1
				],
				"metallicFactor":0,
				"roughnessFactor":0.5
			}
		},
		{
			"doubleSided":true,
			"name":"red.001",
			"pbrMetallicRoughness":{
				"baseColorFactor":[
					0.8001648187637329,
					0.1111927330493927,
					0.09794091433286667,
					1
				],
				"metallicFactor":0.24074074625968933,
				"roughnessFactor":0.8981481790542603
			}
		},
		{
			"doubleSided":true,
			"name":"green.001",
			"pbrMetallicRoughness":{
				"baseColorFactor":[
					0.015697641298174858,
					0.8006061315536499,
					0.010418032296001911,
					1
				],
				"metallicFactor":0.2836363911628723,
				"roughnessFactor":0.20181816816329956
			}
		},
		{
			"doubleSided":true,
			"extensions":{
				"KHR_materials_specular":{
					"specularFactor":0.19631898403167725
				}
			},
			"name":"Material.004",
			"pbrMetallicRoughness":{
				"baseColorFactor":[
					0,
					0,
					0,
					1
				],
				"metallicFactor":0,
				"roughnessFactor":0
			}
		}
	],
	"meshes":[
		{
			"name":"Plane.001",
			"primitives":[
				{
					"attributes":{
						"POSITION":0,
						"NORMAL":1,
						"TEXCOORD_0":2
					},
					"indices":3,
					"material":0
				},
				{
					"attributes":{
						"POSITION":4,
						"NORMAL":5,
						"TEXCOORD_0":6
					},
					"indices":7,
					"material":1
				},
				{
					"attributes":{
						"POSITION":8,
						"NORMAL":9,
						"TEXCOORD_0":10
					},
					"indices":11,
					"material":2
				},
				{
					"attributes":{
						"POSITION":12,
						"NORMAL":13,
						"TEXCOORD_0":14
					},
					"indices":15,
					"material":3
				},
				{
					"attributes":{
						"POSITION":16,
						"NORMAL":17,
						"TEXCOORD_0":18
					},
					"indices":19,
					"material":4
				}
			]
		}
	],
	"accessors":[
		{
			"bufferView":0,
			"componentType":5126,
			"count":6008,
			"max":[
				1.2969292402267456,
				5.208856105804443,
				2.9375216960906982
			],
			"min":[
				-1.4528812170028687,
				-3.7425737380981445,
				-0.8151076436042786
			],
			"type":"VEC3"
		},
		{
			"bufferView":1,
			"componentType":5126,
			"count":6008,
			"type":"VEC3"
		},
		{
			"bufferView":2,
			"componentType":5126,
			"count":6008,
			"type":"VEC2"
		},
		{
			"bufferView":3,
			"componentType":5123,
			"count":36036,
			"type":"SCALAR"
		},
		{
			"bufferView":4,
			"componentType":5126,
			"count":154,
			"max":[
				2.3246724605560303,
				2.2386016845703125,
				1.6550419330596924
			],
			"min":[
				-2.038666248321533,
				-2.5141303539276123,
				-2.708296537399292
			],
			"type":"VEC3"
		},
		{
			"bufferView":5,
			"componentType":5126,
			"count":154,
			"type":"VEC3"
		},
		{
			"bufferView":6,
			"componentType":5126,
			"count":154,
			"type":"VEC2"
		},
		{
			"bufferView":7,
			"componentType":5123,
			"count":234,
			"type":"SCALAR"
		},
		{
			"bufferView":8,
			"componentType":5126,
			"count":36,
			"max":[
				2.3246724605560303,
				-1.9286150932312012,
				1.6550419330596924
			],
			"min":[
				-2.038666248321533,
				-2.1065797805786133,
				-2.2921142578125
			],
			"type":"VEC3"
		},
		{
			"bufferView":9,
			"componentType":5126,
			"count":36,
			"type":"VEC3"
		},
		{
			"bufferView":10,
			"componentType":5126,
			"count":36,
			"type":"VEC2"
		},
		{
			"bufferView":11,
			"componentType":5123,
			"count":66,
			"type":"SCALAR"
		},
		{
			"bufferView":12,
			"componentType":5126,
			"count":60,
			"max":[
				1.9084901809692383,
				-2.514129400253296,
				1.2388596534729004
			],
			"min":[
				-1.6224838495254517,
				-2.7562613487243652,
				-2.292114496231079
			],
			"type":"VEC3"
		},
		{
			"bufferView":13,
			"componentType":5126,
			"count":60,
			"type":"VEC3"
		},
		{
			"bufferView":14,
			"componentType":5126,
			"count":60,
			"type":"VEC2"
		},
		{
			"bufferView":15,
			"componentType":5123,
			"count":102,
			"type":"SCALAR"
		},
		{
			"bufferView":16,
			"componentType":5126,
			"count":1118,
			"max":[
				0.00945425033569336,
				3.6344213485717773,
				2.0270020961761475
			],
			"min":[
				-1.1326700448989868,
				3.18086838722229,
				0.9564465880393982
			],
			"type":"VEC3"
		},
		{
			"bufferView":17,
			"componentType":5126,
			"count":1118,
			"type":"VEC3"
		},
		{
			"bufferView":18,
			"componentType":5126,
			"count":1118,
			"type":"VEC2"
		},
		{
			"bufferView":19,
			"componentType":5123,
			"count":5760,
			"type":"SCALAR"
		}
	],
	"bufferViews":[
		{
			"buffer":0,
			"byteLength":72096,
			"byteOffset":0,
			"target":34962
		},
		{
			"buffer":0,
			"byteLength":72096,
			"byteOffset":72096,
			"target":34962
		},
		{
			"buffer":0,
			"byteLength":48064,
			"byteOffset":144192,
			"target":34962
		},
		{
			"buffer":0,
			"byteLength":72072,
			"byteOffset":192256,
			"target":34963
		},
		{
			"buffer":0,
			"byteLength":1848,
			"byteOffset":264328,
			"target":34962
		},
		{
			"buffer":0,
			"byteLength":1848,
			"byteOffset":266176,
			"target":34962
		},
		{
			"buffer":0,
			"byteLength":1232,
			"byteOffset":268024,
			"target":34962
		},
		{
			"buffer":0,
			"byteLength":468,
			"byteOffset":269256,
			"target":34963
		},
		{
			"buffer":0,
			"byteLength":432,
			"byteOffset":269724,
			"target":34962
		},
		{
			"buffer":0,
			"byteLength":432,
			"byteOffset":270156,
			"target":34962
		},
		{
			"buffer":0,
			"byteLength":288,
			"byteOffset":270588,
			"target":34962
		},
		{
			"buffer":0,
			"byteLength":132,
			"byteOffset":270876,
			"target":34963
		},
		{
			"buffer":0,
			"byteLength":720,
			"byteOffset":271008,
			"target":34962
		},
		{
			"buffer":0,
			"byteLength":720,
			"byteOffset":271728,
			"target":34962
		},
		{
			"buffer":0,
			"byteLength":480,
			"byteOffset":272448,
			"target":34962
		},
		{
			"buffer":0,
			"byteLength":204,
			"byteOffset":272928,
			"target":34963
		},
		{
			"buffer":0,
			"byteLength":13416,
			"byteOffset":273132,
			"target":34962
		},
		{
			"buffer":0,
			"byteLength":13416,
			"byteOffset":286548,
			"target":34962
		},
		{
			"buffer":0,
			"byteLength":8944,
			"byteOffset":299964,
			"target":34962
		},
		{
			"buffer":0,
			"byteLength":11520,
			"byteOffset":308908,
			"target":34963
		}
	],
	"buffers":[
		{
			"byteLength":320428,
			"uri":"Charon34.bin"
		}
	]
}
