{
	"asset":{
		"generator":"Khronos glTF Blender I/O v4.3.47",
		"version":"2.0"
	},
	"extensionsUsed":[
		"KHR_materials_unlit"
	],
	"scene":0,
	"scenes":[
		{
			"name":"Scene",
			"nodes":[
				5,
				10
			]
		}
	],
	"nodes":[
		{
			"name":"pSolid1"
		},
		{
			"mesh":0,
			"name":"pSolid2_lambert1_0"
		},
		{
			"children":[
				1
			],
			"name":"pSolid2"
		},
		{
			"children":[
				0,
				2
			],
			"name":"RootNode"
		},
		{
			"children":[
				3
			],
			"name":"93bc4f32d8d045459d8466476336e30c.fbx",
			"rotation":[
				0.70710688829422,
				0,
				0,
				0.7071066498756409
			],
			"scale":[
				0.009999999776482582,
				0.010000000707805157,
				0.010000000707805157
			]
		},
		{
			"children":[
				4
			],
			"name":"Sketchfab_model",
			"rotation":[
				-0.70710688829422,
				0,
				0,
				0.7071066498756409
			]
		},
		{
			"mesh":1,
			"name":"Cube.002_Texture_0"
		},
		{
			"children":[
				6
			],
			"name":"Cube.002"
		},
		{
			"children":[
				7
			],
			"name":"RootNode.001"
		},
		{
			"children":[
				8
			],
			"name":"27ba2072affa4ca7b6a6d61602d07f21.fbx",
			"rotation":[
				0.70710688829422,
				0,
				0,
				0.7071066498756409
			],
			"scale":[
				0.009999999776482582,
				0.010000001639127731,
				0.010000001639127731
			]
		},
		{
			"children":[
				9
			],
			"name":"Sketchfab_model.001",
			"rotation":[
				-0.5,
				-0.5,
				-0.5,
				0.5
			],
			"scale":[
				0.019761545583605766,
				0.019761545583605766,
				0.019761545583605766
			]
		}
	],
	"materials":[
		{
			"doubleSided":true,
			"name":"lambert1",
			"pbrMetallicRoughness":{
				"baseColorFactor":[
					0.5,
					0.5,
					0.5,
					1
				],
				"metallicFactor":0,
				"roughnessFactor":0.6000000238418579
			}
		},
		{
			"doubleSided":true,
			"extensions":{
				"KHR_materials_unlit":{}
			},
			"name":"Texture",
			"pbrMetallicRoughness":{
				"baseColorTexture":{
					"index":0
				},
				"metallicFactor":0,
				"roughnessFactor":0.9
			}
		}
	],
	"meshes":[
		{
			"name":"pSolid2_lambert1_0",
			"primitives":[
				{
					"attributes":{
						"POSITION":0,
						"NORMAL":1,
						"TEXCOORD_0":2
					},
					"indices":3,
					"material":0
				}
			]
		},
		{
			"name":"Cube.002_Texture_0",
			"primitives":[
				{
					"attributes":{
						"POSITION":4,
						"NORMAL":5,
						"TEXCOORD_0":6
					},
					"indices":7,
					"material":1
				}
			]
		}
	],
	"textures":[
		{
			"sampler":0,
			"source":0
		}
	],
	"images":[
		{
			"mimeType":"image/png",
			"name":"Texture_baseColor",
			"uri":"Texture_baseColor.png"
		}
	],
	"accessors":[
		{
			"bufferView":0,
			"componentType":5126,
			"count":120,
			"max":[
				0.02444065921008587,
				0.02477700635790825,
				0.024117127060890198
			],
			"min":[
				-0.02444065921008587,
				-0.02477700635790825,
				-0.024117127060890198
			],
			"type":"VEC3"
		},
		{
			"bufferView":1,
			"componentType":5126,
			"count":120,
			"type":"VEC3"
		},
		{
			"bufferView":2,
			"componentType":5126,
			"count":120,
			"type":"VEC2"
		},
		{
			"bufferView":3,
			"componentType":5123,
			"count":348,
			"type":"SCALAR"
		},
		{
			"bufferView":4,
			"componentType":5126,
			"count":449,
			"max":[
				40.00840377807617,
				81.0235366821289,
				75.64328002929688
			],
			"min":[
				-55.484397888183594,
				3.7547974586486816,
				-75.64328002929688
			],
			"type":"VEC3"
		},
		{
			"bufferView":5,
			"componentType":5126,
			"count":449,
			"type":"VEC3"
		},
		{
			"bufferView":6,
			"componentType":5126,
			"count":449,
			"type":"VEC2"
		},
		{
			"bufferView":7,
			"componentType":5123,
			"count":2064,
			"type":"SCALAR"
		}
	],
	"bufferViews":[
		{
			"buffer":0,
			"byteLength":1440,
			"byteOffset":0,
			"target":34962
		},
		{
			"buffer":0,
			"byteLength":1440,
			"byteOffset":1440,
			"target":34962
		},
		{
			"buffer":0,
			"byteLength":960,
			"byteOffset":2880,
			"target":34962
		},
		{
			"buffer":0,
			"byteLength":696,
			"byteOffset":3840,
			"target":34963
		},
		{
			"buffer":0,
			"byteLength":5388,
			"byteOffset":4536,
			"target":34962
		},
		{
			"buffer":0,
			"byteLength":5388,
			"byteOffset":9924,
			"target":34962
		},
		{
			"buffer":0,
			"byteLength":3592,
			"byteOffset":15312,
			"target":34962
		},
		{
			"buffer":0,
			"byteLength":4128,
			"byteOffset":18904,
			"target":34963
		}
	],
	"samplers":[
		{
			"magFilter":9729,
			"minFilter":9987
		}
	],
	"buffers":[
		{
			"byteLength":23032,
			"uri":"cruasossss.bin"
		}
	]
}
