{
	"asset":{
		"generator":"Khronos glTF Blender I/O v4.3.47",
		"version":"2.0"
	},
	"extensionsUsed":[
		"KHR_materials_specular",
		"KHR_materials_ior"
	],
	"scene":0,
	"scenes":[
		{
			"name":"Scene",
			"nodes":[
				1,
				6,
				8,
				13
			]
		}
	],
	"nodes":[
		{
			"name":"b6eb88005c704c23a277b639e9f5693c.obj.cleaner.materialmerger.gle"
		},
		{
			"children":[
				0
			],
			"name":"Sketchfab_model.001",
			"rotation":[
				-0.70710688829422,
				0,
				0,
				0.7071066498756409
			],
			"scale":[
				0.01366182416677475,
				0.013661825098097324,
				0.013661825098097324
			]
		},
		{
			"name":"Valenok Tip A001",
			"rotation":[
				-0.70710688829422,
				0,
				0,
				0.7071066498756409
			],
			"scale":[
				0.000821622961666435,
				0.0008216227288357913,
				0.0008216227288357913
			],
			"translation":[
				0.006841773167252541,
				0.005519614554941654,
				0.0015923093305900693
			]
		},
		{
			"name":"Valenok Tip C001",
			"rotation":[
				-0.70710688829422,
				0,
				0,
				0.7071066498756409
			],
			"translation":[
				10.018585205078125,
				0.34044647216796875,
				-0.1645221710205078
			]
		},
		{
			"children":[
				2,
				3
			],
			"name":"RootNode"
		},
		{
			"children":[
				4
			],
			"name":"732d894de3324245b0b25994f427d978.fbx",
			"rotation":[
				0.70710688829422,
				0,
				0,
				0.7071066498756409
			]
		},
		{
			"children":[
				5
			],
			"name":"Sketchfab_model",
			"rotation":[
				-0.70710688829422,
				0,
				0,
				0.7071066498756409
			]
		},
		{
			"name":"onigiri.obj.cleaner.materialmerger.gles"
		},
		{
			"children":[
				7
			],
			"name":"Sketchfab_model.002",
			"rotation":[
				-0.70710688829422,
				0,
				0,
				0.7071066498756409
			]
		},
		{
			"mesh":0,
			"name":"Sphere_Material.002_0",
			"scale":[
				0.00047992588952183723,
				0.0004799259186256677,
				0.0004799259186256677
			]
		},
		{
			"children":[
				9
			],
			"name":"Sphere",
			"rotation":[
				-0.70710688829422,
				0,
				0,
				0.7071066498756409
			],
			"scale":[
				100,
				99.99999237060547,
				99.99999237060547
			]
		},
		{
			"children":[
				10
			],
			"name":"RootNode.001"
		},
		{
			"children":[
				11
			],
			"name":"8a888f66473549c99c3f97fb5030482f.fbx",
			"rotation":[
				0.70710688829422,
				0,
				0,
				0.7071066498756409
			]
		},
		{
			"children":[
				12
			],
			"name":"Sketchfab_model.003",
			"rotation":[
				-0.70710688829422,
				0,
				0,
				0.7071066498756409
			]
		}
	],
	"materials":[
		{
			"doubleSided":true,
			"extensions":{
				"KHR_materials_specular":{
					"specularColorFactor":[
						0.0,
						0.0,
						0.0
					]
				},
				"KHR_materials_ior":{
					"ior":1000
				}
			},
			"name":"Material.002",
			"pbrMetallicRoughness":{
				"baseColorTexture":{
					"index":0
				},
				"metallicFactor":0
			}
		}
	],
	"meshes":[
		{
			"name":"Sphere_Material.002_0",
			"primitives":[
				{
					"attributes":{
						"POSITION":0,
						"NORMAL":1,
						"TEXCOORD_0":2
					},
					"indices":3,
					"material":0
				}
			]
		}
	],
	"textures":[
		{
			"sampler":0,
			"source":0
		}
	],
	"images":[
		{
			"mimeType":"image/jpeg",
			"name":"Material.002_diffuse",
			"uri":"Material_002_diffuse.jpg"
		}
	],
	"accessors":[
		{
			"bufferView":0,
			"componentType":5126,
			"count":3223,
			"max":[
				0.999999463558197,
				0.9999982118606567,
				1
			],
			"min":[
				-0.9999986290931702,
				-0.999998927116394,
				-1
			],
			"type":"VEC3"
		},
		{
			"bufferView":1,
			"componentType":5126,
			"count":3223,
			"type":"VEC3"
		},
		{
			"bufferView":2,
			"componentType":5126,
			"count":3223,
			"type":"VEC2"
		},
		{
			"bufferView":3,
			"componentType":5123,
			"count":17664,
			"type":"SCALAR"
		}
	],
	"bufferViews":[
		{
			"buffer":0,
			"byteLength":38676,
			"byteOffset":0,
			"target":34962
		},
		{
			"buffer":0,
			"byteLength":38676,
			"byteOffset":38676,
			"target":34962
		},
		{
			"buffer":0,
			"byteLength":25784,
			"byteOffset":77352,
			"target":34962
		},
		{
			"buffer":0,
			"byteLength":35328,
			"byteOffset":103136,
			"target":34963
		}
	],
	"samplers":[
		{
			"magFilter":9729,
			"minFilter":9987
		}
	],
	"buffers":[
		{
			"byteLength":138464,
			"uri":"earth.bin"
		}
	]
}
