{
	"asset":{
		"generator":"Khronos glTF Blender I/O v4.3.47",
		"version":"2.0"
	},
	"scene":0,
	"scenes":[
		{
			"name":"Scene",
			"nodes":[
				1,
				6,
				7,
				8,
				11
			]
		}
	],
	"nodes":[
		{
			"name":"b6eb88005c704c23a277b639e9f5693c.obj.cleaner.materialmerger.gle"
		},
		{
			"children":[
				0
			],
			"name":"Sketchfab_model.001",
			"rotation":[
				-0.70710688829422,
				0,
				0,
				0.7071066498756409
			],
			"scale":[
				0.01366182416677475,
				0.013661826029419899,
				0.013661826029419899
			]
		},
		{
			"name":"Valenok Tip A001",
			"rotation":[
				-0.70710688829422,
				0,
				0,
				0.7071066498756409
			],
			"scale":[
				0.000821622961666435,
				0.0008216227870434523,
				0.0008216227870434523
			],
			"translation":[
				0.006841773167252541,
				0.005519614554941654,
				0.0015923093305900693
			]
		},
		{
			"name":"Valenok Tip C001",
			"rotation":[
				-0.70710688829422,
				0,
				0,
				0.7071066498756409
			],
			"translation":[
				10.018585205078125,
				0.34044647216796875,
				-0.1645221710205078
			]
		},
		{
			"children":[
				2,
				3
			],
			"name":"RootNode"
		},
		{
			"children":[
				4
			],
			"name":"732d894de3324245b0b25994f427d978.fbx",
			"rotation":[
				0.70710688829422,
				0,
				0,
				0.7071066498756409
			]
		},
		{
			"children":[
				5
			],
			"name":"Sketchfab_model",
			"rotation":[
				-0.70710688829422,
				0,
				0,
				0.7071066498756409
			]
		},
		{
			"name":"Object_4",
			"rotation":[
				0,
				0,
				-0.08715575188398361,
				0.9961947202682495
			],
			"translation":[
				2.8659238815307617,
				8.419783592224121,
				25.349449157714844
			]
		},
		{
			"name":"Object_12",
			"rotation":[
				0,
				0,
				-0.08715574443340302,
				0.9961947202682495
			],
			"translation":[
				2.35117244720459,
				8.087905883789062,
				25.001651763916016
			]
		},
		{
			"mesh":0,
			"name":"Object_4.001",
			"scale":[
				0.0083748335018754,
				0.008374834433197975,
				0.008374834433197975
			],
			"translation":[
				-0.0017476014327257872,
				-0.00010036680760094896,
				-0.007666843943297863
			]
		},
		{
			"children":[
				9
			],
			"name":"onigiri.obj.cleaner.materialmerger.gles"
		},
		{
			"children":[
				10
			],
			"name":"Sketchfab_model.002",
			"rotation":[
				-0.70710688829422,
				0,
				0,
				0.7071066498756409
			]
		}
	],
	"materials":[
		{
			"doubleSided":true,
			"name":"Material.003",
			"pbrMetallicRoughness":{
				"baseColorTexture":{
					"index":0
				},
				"metallicFactor":0,
				"roughnessFactor":0.8011823296546936
			}
		}
	],
	"meshes":[
		{
			"name":"Object_2",
			"primitives":[
				{
					"attributes":{
						"POSITION":0,
						"NORMAL":1,
						"TEXCOORD_0":2
					},
					"indices":3,
					"material":0
				}
			]
		}
	],
	"textures":[
		{
			"sampler":0,
			"source":0
		}
	],
	"images":[
		{
			"mimeType":"image/png",
			"name":"Material.002_baseColor",
			"uri":"Material_002_baseColor.png"
		}
	],
	"accessors":[
		{
			"bufferView":0,
			"componentType":5126,
			"count":247,
			"max":[
				1.1793630123138428,
				0.8521469831466675,
				2.4845149517059326
			],
			"min":[
				-1.1793630123138428,
				-0.8521479964256287,
				0.32998499274253845
			],
			"type":"VEC3"
		},
		{
			"bufferView":1,
			"componentType":5126,
			"count":247,
			"type":"VEC3"
		},
		{
			"bufferView":2,
			"componentType":5126,
			"count":247,
			"type":"VEC2"
		},
		{
			"bufferView":3,
			"componentType":5123,
			"count":1176,
			"type":"SCALAR"
		}
	],
	"bufferViews":[
		{
			"buffer":0,
			"byteLength":2964,
			"byteOffset":0,
			"target":34962
		},
		{
			"buffer":0,
			"byteLength":2964,
			"byteOffset":2964,
			"target":34962
		},
		{
			"buffer":0,
			"byteLength":1976,
			"byteOffset":5928,
			"target":34962
		},
		{
			"buffer":0,
			"byteLength":2352,
			"byteOffset":7904,
			"target":34963
		}
	],
	"samplers":[
		{
			"magFilter":9729,
			"minFilter":9987
		}
	],
	"buffers":[
		{
			"byteLength":10256,
			"uri":"felx.bin"
		}
	]
}
