{
	"asset":{
		"generator":"Khronos glTF Blender I/O v4.3.47",
		"version":"2.0"
	},
	"scene":0,
	"scenes":[
		{
			"name":"Scene",
			"nodes":[
				1,
				6,
				7,
				8,
				10,
				14,
				20
			]
		}
	],
	"nodes":[
		{
			"name":"b6eb88005c704c23a277b639e9f5693c.obj.cleaner.materialmerger.gle"
		},
		{
			"children":[
				0
			],
			"name":"Sketchfab_model.001",
			"rotation":[
				-0.70710688829422,
				0,
				0,
				0.7071066498756409
			],
			"scale":[
				0.01366182416677475,
				0.013661826029419899,
				0.013661826029419899
			]
		},
		{
			"name":"Valenok Tip A001",
			"rotation":[
				-0.70710688829422,
				0,
				0,
				0.7071066498756409
			],
			"scale":[
				0.000821622961666435,
				0.0008216227870434523,
				0.0008216227870434523
			],
			"translation":[
				0.006841773167252541,
				0.005519614554941654,
				0.0015923093305900693
			]
		},
		{
			"name":"Valenok Tip C001",
			"rotation":[
				-0.70710688829422,
				0,
				0,
				0.7071066498756409
			],
			"translation":[
				10.018585205078125,
				0.34044647216796875,
				-0.1645221710205078
			]
		},
		{
			"children":[
				2,
				3
			],
			"name":"RootNode"
		},
		{
			"children":[
				4
			],
			"name":"732d894de3324245b0b25994f427d978.fbx",
			"rotation":[
				0.70710688829422,
				0,
				0,
				0.7071066498756409
			]
		},
		{
			"children":[
				5
			],
			"name":"Sketchfab_model",
			"rotation":[
				-0.70710688829422,
				0,
				0,
				0.7071066498756409
			]
		},
		{
			"name":"Object_4",
			"rotation":[
				0,
				0,
				-0.08715575188398361,
				0.9961947202682495
			],
			"translation":[
				2.8659238815307617,
				8.419783592224121,
				25.349449157714844
			]
		},
		{
			"name":"Object_12",
			"rotation":[
				0,
				0,
				-0.08715574443340302,
				0.9961947202682495
			],
			"translation":[
				2.35117244720459,
				8.087905883789062,
				25.001651763916016
			]
		},
		{
			"name":"onigiri.obj.cleaner.materialmerger.gles"
		},
		{
			"children":[
				9
			],
			"name":"Sketchfab_model.002",
			"rotation":[
				-0.70710688829422,
				0,
				0,
				0.7071066498756409
			]
		},
		{
			"name":"_0_0_node"
		},
		{
			"name":"_1_0_node"
		},
		{
			"children":[
				11,
				12
			],
			"name":"Collada visual scene group",
			"rotation":[
				0.70710688829422,
				0,
				0,
				0.7071066498756409
			]
		},
		{
			"children":[
				13
			],
			"name":"Sketchfab_model.003",
			"rotation":[
				-0.7071069478988647,
				0,
				0,
				0.7071066498756409
			],
			"scale":[
				0.002595925470814109,
				0.0025959257036447525,
				0.0025959257036447525
			],
			"translation":[
				0,
				-0.0033694307785481215,
				0
			]
		},
		{
			"mesh":0,
			"name":"Cube_Material.002_0"
		},
		{
			"mesh":1,
			"name":"Cube_Material.004_0"
		},
		{
			"children":[
				15,
				16
			],
			"name":"Cube",
			"rotation":[
				-0.70710688829422,
				0,
				0,
				0.7071066498756409
			],
			"scale":[
				100,
				99.99998474121094,
				99.99999237060547
			],
			"translation":[
				0,
				2.86102294921875e-06,
				0
			]
		},
		{
			"children":[
				17
			],
			"name":"RootNode.001",
			"translation":[
				0,
				2.86102294921875e-06,
				0
			]
		},
		{
			"children":[
				18
			],
			"name":"664c0579ee5549e5b773e7274df06b58.fbx",
			"rotation":[
				0.70710688829422,
				0,
				0,
				0.7071066498756409
			],
			"translation":[
				-7.12275505065918e-06,
				0,
				-9.5367431640625e-06
			]
		},
		{
			"children":[
				19
			],
			"name":"Sketchfab_model.004",
			"rotation":[
				-0.6363533735275269,
				0.138796865940094,
				-0.17078830301761627,
				0.7393383383750916
			],
			"scale":[
				8.504814468324184e-05,
				8.504815195919946e-05,
				8.504813740728423e-05
			],
			"translation":[
				-0.00885716825723648,
				-0.014056140556931496,
				-0.0024309332948178053
			]
		}
	],
	"materials":[
		{
			"doubleSided":true,
			"name":"Material.005",
			"pbrMetallicRoughness":{
				"baseColorFactor":[
					0.800000011920929,
					0.25403299927711487,
					0.047569599002599716,
					1
				],
				"metallicFactor":0,
				"roughnessFactor":0.6000000238418579
			}
		},
		{
			"doubleSided":true,
			"name":"Material.006",
			"pbrMetallicRoughness":{
				"baseColorFactor":[
					0.2738319933414459,
					0.2738319933414459,
					0.2738319933414459,
					1
				],
				"metallicFactor":0,
				"roughnessFactor":0.6000000238418579
			}
		}
	],
	"meshes":[
		{
			"name":"Cube_Material.002_0",
			"primitives":[
				{
					"attributes":{
						"POSITION":0,
						"NORMAL":1
					},
					"indices":2,
					"material":0
				}
			]
		},
		{
			"name":"Cube_Material.004_0",
			"primitives":[
				{
					"attributes":{
						"POSITION":3,
						"NORMAL":4
					},
					"indices":5,
					"material":1
				}
			]
		}
	],
	"accessors":[
		{
			"bufferView":0,
			"componentType":5126,
			"count":168,
			"max":[
				0.794768214225769,
				0.794768214225769,
				11.473470687866211
			],
			"min":[
				-0.794768214225769,
				-0.794768214225769,
				-0.4544679820537567
			],
			"type":"VEC3"
		},
		{
			"bufferView":1,
			"componentType":5126,
			"count":168,
			"type":"VEC3"
		},
		{
			"bufferView":2,
			"componentType":5123,
			"count":252,
			"type":"SCALAR"
		},
		{
			"bufferView":3,
			"componentType":5126,
			"count":16,
			"max":[
				0.3737614154815674,
				0.3737614154815674,
				3.088369369506836
			],
			"min":[
				-0.3737614154815674,
				-0.3737614154815674,
				0.12791132926940918
			],
			"type":"VEC3"
		},
		{
			"bufferView":4,
			"componentType":5126,
			"count":16,
			"type":"VEC3"
		},
		{
			"bufferView":5,
			"componentType":5123,
			"count":24,
			"type":"SCALAR"
		}
	],
	"bufferViews":[
		{
			"buffer":0,
			"byteLength":2016,
			"byteOffset":0,
			"target":34962
		},
		{
			"buffer":0,
			"byteLength":2016,
			"byteOffset":2016,
			"target":34962
		},
		{
			"buffer":0,
			"byteLength":504,
			"byteOffset":4032,
			"target":34963
		},
		{
			"buffer":0,
			"byteLength":192,
			"byteOffset":4536,
			"target":34962
		},
		{
			"buffer":0,
			"byteLength":192,
			"byteOffset":4728,
			"target":34962
		},
		{
			"buffer":0,
			"byteLength":48,
			"byteOffset":4920,
			"target":34963
		}
	],
	"buffers":[
		{
			"byteLength":4968,
			"uri":"greek.bin"
		}
	]
}
