{
	"asset":{
		"generator":"Khronos glTF Blender I/O v4.5.48",
		"version":"2.0"
	},
	"scene":0,
	"scenes":[
		{
			"name":"Scene",
			"nodes":[
				0
			]
		}
	],
	"nodes":[
		{
			"mesh":0,
			"name":"keyboard",
			"translation":[
				0.05312398076057434,
				0.012262769043445587,
				0
			]
		}
	],
	"materials":[
		{
			"doubleSided":true,
			"name":"grey.001",
			"pbrMetallicRoughness":{
				"baseColorFactor":[
					0.6624355316162109,
					0.6624355316162109,
					0.6624355316162109,
					1
				],
				"metallicFactor":0.414545476436615,
				"roughnessFactor":0.33272725343704224
			}
		},
		{
			"doubleSided":true,
			"name":"black",
			"pbrMetallicRoughness":{
				"baseColorFactor":[
					0.062083274126052856,
					0.062083274126052856,
					0.062083274126052856,
					1
				],
				"metallicFactor":0,
				"roughnessFactor":0.8425925970077515
			}
		}
	],
	"meshes":[
		{
			"name":"Cylinder.006",
			"primitives":[
				{
					"attributes":{
						"POSITION":0,
						"NORMAL":1,
						"TEXCOORD_0":2
					},
					"indices":3,
					"material":0
				},
				{
					"attributes":{
						"POSITION":4,
						"NORMAL":5,
						"TEXCOORD_0":6
					},
					"indices":7,
					"material":1
				}
			]
		}
	],
	"accessors":[
		{
			"bufferView":0,
			"componentType":5126,
			"count":1228,
			"max":[
				-1.3109756708145142,
				-0.6253642439842224,
				0.17347757518291473
			],
			"min":[
				-1.3981989622116089,
				-0.653038740158081,
				-0.17347759008407593
			],
			"type":"VEC3"
		},
		{
			"bufferView":1,
			"componentType":5126,
			"count":1228,
			"type":"VEC3"
		},
		{
			"bufferView":2,
			"componentType":5126,
			"count":1228,
			"type":"VEC2"
		},
		{
			"bufferView":3,
			"componentType":5123,
			"count":2160,
			"type":"SCALAR"
		},
		{
			"bufferView":4,
			"componentType":5126,
			"count":359,
			"max":[
				-1.2905808687210083,
				-0.6241673827171326,
				0.192752867937088
			],
			"min":[
				-1.4202860593795776,
				-0.6689740419387817,
				-0.192752867937088
			],
			"type":"VEC3"
		},
		{
			"bufferView":5,
			"componentType":5126,
			"count":359,
			"type":"VEC3"
		},
		{
			"bufferView":6,
			"componentType":5126,
			"count":359,
			"type":"VEC2"
		},
		{
			"bufferView":7,
			"componentType":5123,
			"count":1320,
			"type":"SCALAR"
		}
	],
	"bufferViews":[
		{
			"buffer":0,
			"byteLength":14736,
			"byteOffset":0,
			"target":34962
		},
		{
			"buffer":0,
			"byteLength":14736,
			"byteOffset":14736,
			"target":34962
		},
		{
			"buffer":0,
			"byteLength":9824,
			"byteOffset":29472,
			"target":34962
		},
		{
			"buffer":0,
			"byteLength":4320,
			"byteOffset":39296,
			"target":34963
		},
		{
			"buffer":0,
			"byteLength":4308,
			"byteOffset":43616,
			"target":34962
		},
		{
			"buffer":0,
			"byteLength":4308,
			"byteOffset":47924,
			"target":34962
		},
		{
			"buffer":0,
			"byteLength":2872,
			"byteOffset":52232,
			"target":34962
		},
		{
			"buffer":0,
			"byteLength":2640,
			"byteOffset":55104,
			"target":34963
		}
	],
	"buffers":[
		{
			"byteLength":57744,
			"uri":"keyboard.bin"
		}
	]
}
