{
	"asset":{
		"generator":"Khronos glTF Blender I/O v4.3.47",
		"version":"2.0"
	},
	"scene":0,
	"scenes":[
		{
			"name":"Scene",
			"nodes":[
				1,
				5,
				6,
				7,
				9,
				14,
				19,
				24
			]
		}
	],
	"nodes":[
		{
			"name":"b6eb88005c704c23a277b639e9f5693c.obj.cleaner.materialmerger.gle"
		},
		{
			"children":[
				0
			],
			"name":"Sketchfab_model.001",
			"rotation":[
				-0.70710688829422,
				0,
				0,
				0.7071066498756409
			],
			"scale":[
				0.01366182416677475,
				0.013661825098097324,
				0.013661825098097324
			]
		},
		{
			"name":"Valenok Tip A001",
			"rotation":[
				-0.70710688829422,
				0,
				0,
				0.7071066498756409
			],
			"scale":[
				0.000821622961666435,
				0.0008216227288357913,
				0.0008216227288357913
			],
			"translation":[
				0.006841773167252541,
				0.005519614554941654,
				0.0015923093305900693
			]
		},
		{
			"children":[
				2
			],
			"name":"RootNode"
		},
		{
			"children":[
				3
			],
			"name":"732d894de3324245b0b25994f427d978.fbx",
			"rotation":[
				0.70710688829422,
				0,
				0,
				0.7071066498756409
			]
		},
		{
			"children":[
				4
			],
			"name":"Sketchfab_model",
			"rotation":[
				-0.70710688829422,
				0,
				0,
				0.7071066498756409
			]
		},
		{
			"name":"Object_4",
			"rotation":[
				0,
				0,
				-0.08715574443340302,
				0.9961947798728943
			],
			"translation":[
				2.8659238815307617,
				8.419783592224121,
				25.349449157714844
			]
		},
		{
			"name":"Object_12",
			"rotation":[
				0,
				0,
				-0.08715573698282242,
				0.9961947798728943
			],
			"translation":[
				2.35117244720459,
				8.087905883789062,
				25.001651763916016
			]
		},
		{
			"name":"onigiri.obj.cleaner.materialmerger.gles"
		},
		{
			"children":[
				8
			],
			"name":"Sketchfab_model.002",
			"rotation":[
				-0.70710688829422,
				0,
				0,
				0.7071066498756409
			]
		},
		{
			"mesh":0,
			"name":"Bamboo.003__0",
			"rotation":[
				0.007709072437137365,
				-0.01834738440811634,
				-0.012040273286402225,
				0.9997294545173645
			]
		},
		{
			"children":[
				10
			],
			"name":"Bamboo.003"
		},
		{
			"children":[
				11
			],
			"name":"RootNode.001"
		},
		{
			"children":[
				12
			],
			"name":"da4ee707c33e46f5934d3bd3aeeb1116.fbx",
			"rotation":[
				0.70710688829422,
				0,
				0,
				0.7071066498756409
			]
		},
		{
			"children":[
				13
			],
			"name":"Sketchfab_model.003",
			"rotation":[
				-0.70710688829422,
				0,
				0,
				0.7071066498756409
			],
			"scale":[
				0.02208147756755352,
				0.02208147943019867,
				0.02208147943019867
			]
		},
		{
			"mesh":1,
			"name":"Bamboo.003__0.001",
			"rotation":[
				-0.02994486689567566,
				-0.1332106590270996,
				0.014268583618104458,
				0.9905325174331665
			],
			"translation":[
				-0.023009944707155228,
				-0.07920736819505692,
				-0.01973668858408928
			]
		},
		{
			"children":[
				15
			],
			"name":"Bamboo.001"
		},
		{
			"children":[
				16
			],
			"name":"RootNode.002"
		},
		{
			"children":[
				17
			],
			"name":"da4ee707c33e46f5934d3bd3aeeb1116.fbx.001",
			"rotation":[
				0.70710688829422,
				0,
				0,
				0.7071066498756409
			]
		},
		{
			"children":[
				18
			],
			"name":"Sketchfab_model.004",
			"rotation":[
				-0.2434062659740448,
				0.6867974996566772,
				0.6476908326148987,
				0.22261877357959747
			],
			"scale":[
				0.02208147943019867,
				0.02208147943019867,
				0.02208147943019867
			],
			"translation":[
				-0.006700481288135052,
				0.0024299193173646927,
				-0.006786538287997246
			]
		},
		{
			"mesh":2,
			"name":"Bamboo.003__0.002",
			"rotation":[
				0.015218185260891914,
				0.9748210906982422,
				-0.03471292555332184,
				0.2197437286376953
			],
			"translation":[
				-0.06158309429883957,
				0.025845609605312347,
				0.029566198587417603
			]
		},
		{
			"children":[
				20
			],
			"name":"Bamboo.002"
		},
		{
			"children":[
				21
			],
			"name":"RootNode.003"
		},
		{
			"children":[
				22
			],
			"name":"da4ee707c33e46f5934d3bd3aeeb1116.fbx.002",
			"rotation":[
				0.70710688829422,
				0,
				0,
				0.7071066498756409
			]
		},
		{
			"children":[
				23
			],
			"name":"Sketchfab_model.005",
			"rotation":[
				-0.70710688829422,
				0,
				0,
				0.7071066498756409
			],
			"scale":[
				0.02208147756755352,
				0.02208147943019867,
				0.02208147943019867
			],
			"translation":[
				0.004111158195883036,
				-0.0019772981759160757,
				-0.0069183665327727795
			]
		}
	],
	"materials":[
		{
			"doubleSided":true,
			"name":"Scene_-_Root",
			"pbrMetallicRoughness":{
				"baseColorTexture":{
					"index":0
				},
				"metallicFactor":0,
				"roughnessFactor":0.6000000238418579
			}
		},
		{
			"doubleSided":true,
			"name":"Scene_-_Root.001",
			"pbrMetallicRoughness":{
				"baseColorTexture":{
					"index":1
				},
				"metallicFactor":0,
				"roughnessFactor":0.6000000238418579
			}
		},
		{
			"doubleSided":true,
			"name":"Scene_-_Root.002",
			"pbrMetallicRoughness":{
				"baseColorTexture":{
					"index":2
				},
				"metallicFactor":0,
				"roughnessFactor":0.6000000238418579
			}
		}
	],
	"meshes":[
		{
			"name":"Bamboo.003__0",
			"primitives":[
				{
					"attributes":{
						"POSITION":0,
						"NORMAL":1,
						"TEXCOORD_0":2,
						"TEXCOORD_1":3,
						"TEXCOORD_2":4,
						"TEXCOORD_3":5,
						"TEXCOORD_4":6,
						"TEXCOORD_5":7,
						"TEXCOORD_6":8,
						"TEXCOORD_7":9
					},
					"indices":10,
					"material":0
				}
			]
		},
		{
			"name":"Bamboo.003__0.001",
			"primitives":[
				{
					"attributes":{
						"POSITION":11,
						"NORMAL":12,
						"TEXCOORD_0":13,
						"TEXCOORD_1":14,
						"TEXCOORD_2":15,
						"TEXCOORD_3":16,
						"TEXCOORD_4":17,
						"TEXCOORD_5":18,
						"TEXCOORD_6":19,
						"TEXCOORD_7":20
					},
					"indices":10,
					"material":1
				}
			]
		},
		{
			"name":"Bamboo.003__0.002",
			"primitives":[
				{
					"attributes":{
						"POSITION":21,
						"NORMAL":22,
						"TEXCOORD_0":23,
						"TEXCOORD_1":24,
						"TEXCOORD_2":25,
						"TEXCOORD_3":26,
						"TEXCOORD_4":27,
						"TEXCOORD_5":28,
						"TEXCOORD_6":29,
						"TEXCOORD_7":30
					},
					"indices":10,
					"material":2
				}
			]
		}
	],
	"textures":[
		{
			"sampler":0,
			"source":0
		},
		{
			"sampler":0,
			"source":0
		},
		{
			"sampler":0,
			"source":0
		}
	],
	"images":[
		{
			"mimeType":"image/png",
			"name":"Scene_-_Root_baseColor",
			"uri":"Scene_-_Root_baseColor.png"
		}
	],
	"accessors":[
		{
			"bufferView":0,
			"componentType":5126,
			"count":676,
			"max":[
				0.29097068309783936,
				5.118113040924072,
				0.35196080803871155
			],
			"min":[
				-0.1718226671218872,
				-5.323607865648228e-08,
				-0.16329708695411682
			],
			"type":"VEC3"
		},
		{
			"bufferView":1,
			"componentType":5126,
			"count":676,
			"type":"VEC3"
		},
		{
			"bufferView":2,
			"componentType":5126,
			"count":676,
			"type":"VEC2"
		},
		{
			"bufferView":3,
			"componentType":5126,
			"count":676,
			"type":"VEC2"
		},
		{
			"bufferView":4,
			"componentType":5126,
			"count":676,
			"type":"VEC2"
		},
		{
			"bufferView":5,
			"componentType":5126,
			"count":676,
			"type":"VEC2"
		},
		{
			"bufferView":6,
			"componentType":5126,
			"count":676,
			"type":"VEC2"
		},
		{
			"bufferView":7,
			"componentType":5126,
			"count":676,
			"type":"VEC2"
		},
		{
			"bufferView":8,
			"componentType":5126,
			"count":676,
			"type":"VEC2"
		},
		{
			"bufferView":9,
			"componentType":5126,
			"count":676,
			"type":"VEC2"
		},
		{
			"bufferView":10,
			"componentType":5123,
			"count":864,
			"type":"SCALAR"
		},
		{
			"bufferView":11,
			"componentType":5126,
			"count":676,
			"max":[
				0.29097068309783936,
				5.118113040924072,
				0.35196080803871155
			],
			"min":[
				-0.1718226671218872,
				-5.323607865648228e-08,
				-0.16329708695411682
			],
			"type":"VEC3"
		},
		{
			"bufferView":12,
			"componentType":5126,
			"count":676,
			"type":"VEC3"
		},
		{
			"bufferView":13,
			"componentType":5126,
			"count":676,
			"type":"VEC2"
		},
		{
			"bufferView":14,
			"componentType":5126,
			"count":676,
			"type":"VEC2"
		},
		{
			"bufferView":15,
			"componentType":5126,
			"count":676,
			"type":"VEC2"
		},
		{
			"bufferView":16,
			"componentType":5126,
			"count":676,
			"type":"VEC2"
		},
		{
			"bufferView":17,
			"componentType":5126,
			"count":676,
			"type":"VEC2"
		},
		{
			"bufferView":18,
			"componentType":5126,
			"count":676,
			"type":"VEC2"
		},
		{
			"bufferView":19,
			"componentType":5126,
			"count":676,
			"type":"VEC2"
		},
		{
			"bufferView":20,
			"componentType":5126,
			"count":676,
			"type":"VEC2"
		},
		{
			"bufferView":21,
			"componentType":5126,
			"count":676,
			"max":[
				0.29097068309783936,
				5.118113040924072,
				0.35196080803871155
			],
			"min":[
				-0.1718226671218872,
				-5.323607865648228e-08,
				-0.16329708695411682
			],
			"type":"VEC3"
		},
		{
			"bufferView":22,
			"componentType":5126,
			"count":676,
			"type":"VEC3"
		},
		{
			"bufferView":23,
			"componentType":5126,
			"count":676,
			"type":"VEC2"
		},
		{
			"bufferView":24,
			"componentType":5126,
			"count":676,
			"type":"VEC2"
		},
		{
			"bufferView":25,
			"componentType":5126,
			"count":676,
			"type":"VEC2"
		},
		{
			"bufferView":26,
			"componentType":5126,
			"count":676,
			"type":"VEC2"
		},
		{
			"bufferView":27,
			"componentType":5126,
			"count":676,
			"type":"VEC2"
		},
		{
			"bufferView":28,
			"componentType":5126,
			"count":676,
			"type":"VEC2"
		},
		{
			"bufferView":29,
			"componentType":5126,
			"count":676,
			"type":"VEC2"
		},
		{
			"bufferView":30,
			"componentType":5126,
			"count":676,
			"type":"VEC2"
		}
	],
	"bufferViews":[
		{
			"buffer":0,
			"byteLength":8112,
			"byteOffset":0,
			"target":34962
		},
		{
			"buffer":0,
			"byteLength":8112,
			"byteOffset":8112,
			"target":34962
		},
		{
			"buffer":0,
			"byteLength":5408,
			"byteOffset":16224,
			"target":34962
		},
		{
			"buffer":0,
			"byteLength":5408,
			"byteOffset":21632,
			"target":34962
		},
		{
			"buffer":0,
			"byteLength":5408,
			"byteOffset":27040,
			"target":34962
		},
		{
			"buffer":0,
			"byteLength":5408,
			"byteOffset":32448,
			"target":34962
		},
		{
			"buffer":0,
			"byteLength":5408,
			"byteOffset":37856,
			"target":34962
		},
		{
			"buffer":0,
			"byteLength":5408,
			"byteOffset":43264,
			"target":34962
		},
		{
			"buffer":0,
			"byteLength":5408,
			"byteOffset":48672,
			"target":34962
		},
		{
			"buffer":0,
			"byteLength":5408,
			"byteOffset":54080,
			"target":34962
		},
		{
			"buffer":0,
			"byteLength":1728,
			"byteOffset":59488,
			"target":34963
		},
		{
			"buffer":0,
			"byteLength":8112,
			"byteOffset":61216,
			"target":34962
		},
		{
			"buffer":0,
			"byteLength":8112,
			"byteOffset":69328,
			"target":34962
		},
		{
			"buffer":0,
			"byteLength":5408,
			"byteOffset":77440,
			"target":34962
		},
		{
			"buffer":0,
			"byteLength":5408,
			"byteOffset":82848,
			"target":34962
		},
		{
			"buffer":0,
			"byteLength":5408,
			"byteOffset":88256,
			"target":34962
		},
		{
			"buffer":0,
			"byteLength":5408,
			"byteOffset":93664,
			"target":34962
		},
		{
			"buffer":0,
			"byteLength":5408,
			"byteOffset":99072,
			"target":34962
		},
		{
			"buffer":0,
			"byteLength":5408,
			"byteOffset":104480,
			"target":34962
		},
		{
			"buffer":0,
			"byteLength":5408,
			"byteOffset":109888,
			"target":34962
		},
		{
			"buffer":0,
			"byteLength":5408,
			"byteOffset":115296,
			"target":34962
		},
		{
			"buffer":0,
			"byteLength":8112,
			"byteOffset":120704,
			"target":34962
		},
		{
			"buffer":0,
			"byteLength":8112,
			"byteOffset":128816,
			"target":34962
		},
		{
			"buffer":0,
			"byteLength":5408,
			"byteOffset":136928,
			"target":34962
		},
		{
			"buffer":0,
			"byteLength":5408,
			"byteOffset":142336,
			"target":34962
		},
		{
			"buffer":0,
			"byteLength":5408,
			"byteOffset":147744,
			"target":34962
		},
		{
			"buffer":0,
			"byteLength":5408,
			"byteOffset":153152,
			"target":34962
		},
		{
			"buffer":0,
			"byteLength":5408,
			"byteOffset":158560,
			"target":34962
		},
		{
			"buffer":0,
			"byteLength":5408,
			"byteOffset":163968,
			"target":34962
		},
		{
			"buffer":0,
			"byteLength":5408,
			"byteOffset":169376,
			"target":34962
		},
		{
			"buffer":0,
			"byteLength":5408,
			"byteOffset":174784,
			"target":34962
		}
	],
	"samplers":[
		{
			"magFilter":9729,
			"minFilter":9987
		}
	],
	"buffers":[
		{
			"byteLength":180192,
			"uri":"selekaka.bin"
		}
	]
}
