{
	"asset":{
		"generator":"Khronos glTF Blender I/O v4.3.47",
		"version":"2.0"
	},
	"extensionsUsed":[
		"KHR_materials_transmission"
	],
	"scene":0,
	"scenes":[
		{
			"name":"Scene",
			"nodes":[
				0,
				1,
				2,
				9
			]
		}
	],
	"nodes":[
		{
			"name":"Object_4",
			"rotation":[
				0,
				0,
				-0.08715575188398361,
				0.9961947202682495
			],
			"translation":[
				2.8659238815307617,
				8.419783592224121,
				25.349449157714844
			]
		},
		{
			"name":"Object_12",
			"rotation":[
				0,
				0,
				-0.08715574443340302,
				0.9961947202682495
			],
			"translation":[
				2.35117244720459,
				8.087905883789062,
				25.001651763916016
			]
		},
		{
			"name":"Valenok Tip C001",
			"rotation":[
				-0.70710688829422,
				0,
				0,
				0.7071066498756409
			],
			"translation":[
				10.018585205078125,
				0.34044647216796875,
				-0.1645221710205078
			]
		},
		{
			"mesh":0,
			"name":"Beer_Beer_0"
		},
		{
			"mesh":1,
			"name":"Beer_beerup_0"
		},
		{
			"mesh":2,
			"name":"Beer_Glass_0"
		},
		{
			"children":[
				3,
				4,
				5
			],
			"name":"Beer",
			"rotation":[
				-0.5000000596046448,
				-0.49999991059303284,
				-0.5,
				0.5
			],
			"scale":[
				55.06836700439453,
				55.068359375,
				55.06836700439453
			],
			"translation":[
				-17.323287963867188,
				108.00443267822266,
				9.292393684387207
			]
		},
		{
			"children":[
				6
			],
			"name":"RootNode.002"
		},
		{
			"children":[
				7
			],
			"name":"7267a0f1ccca4c6f9d74f24eb8bbb418.fbx",
			"rotation":[
				0.70710688829422,
				0,
				0,
				0.7071066498756409
			],
			"scale":[
				0.009999999776482582,
				0.010000000707805157,
				0.010000000707805157
			]
		},
		{
			"children":[
				8
			],
			"name":"Sketchfab_model.005",
			"rotation":[
				-0.70710688829422,
				0,
				0,
				0.7071066498756409
			],
			"scale":[
				0.015347865410149097,
				0.015347867272794247,
				0.015347867272794247
			],
			"translation":[
				0.00294240633957088,
				0,
				0
			]
		}
	],
	"materials":[
		{
			"doubleSided":true,
			"name":"Beer",
			"pbrMetallicRoughness":{
				"baseColorTexture":{
					"index":0
				},
				"metallicFactor":0
			}
		},
		{
			"doubleSided":true,
			"name":"beerup",
			"pbrMetallicRoughness":{
				"baseColorTexture":{
					"index":1
				},
				"metallicFactor":0
			}
		},
		{
			"alphaMode":"BLEND",
			"doubleSided":true,
			"extensions":{
				"KHR_materials_transmission":{
					"transmissionFactor":1,
					"transmissionTexture":{
						"index":2
					}
				}
			},
			"name":"Glass",
			"normalTexture":{
				"index":3
			},
			"pbrMetallicRoughness":{
				"baseColorTexture":{
					"index":4
				},
				"metallicRoughnessTexture":{
					"index":5
				}
			}
		}
	],
	"meshes":[
		{
			"name":"Beer_Beer_0",
			"primitives":[
				{
					"attributes":{
						"POSITION":0,
						"NORMAL":1,
						"TEXCOORD_0":2
					},
					"indices":3,
					"material":0
				}
			]
		},
		{
			"name":"Beer_beerup_0",
			"primitives":[
				{
					"attributes":{
						"POSITION":4,
						"NORMAL":5,
						"TEXCOORD_0":6
					},
					"indices":7,
					"material":1
				}
			]
		},
		{
			"name":"Beer_Glass_0",
			"primitives":[
				{
					"attributes":{
						"POSITION":8,
						"NORMAL":9,
						"TEXCOORD_0":10,
						"TEXCOORD_1":11,
						"TEXCOORD_2":12
					},
					"indices":13,
					"material":2
				}
			]
		}
	],
	"textures":[
		{
			"sampler":0,
			"source":0
		},
		{
			"sampler":0,
			"source":1
		},
		{
			"sampler":0,
			"source":2
		},
		{
			"sampler":0,
			"source":3
		},
		{
			"sampler":0,
			"source":4
		},
		{
			"sampler":0,
			"source":5
		}
	],
	"images":[
		{
			"mimeType":"image/jpeg",
			"name":"Beer_baseColor",
			"uri":"Beer_baseColor.jpg"
		},
		{
			"mimeType":"image/jpeg",
			"name":"beerup_baseColor",
			"uri":"beerup_baseColor.jpg"
		},
		{
			"mimeType":"image/png",
			"name":"Glass_transmission",
			"uri":"Glass_transmission.png"
		},
		{
			"mimeType":"image/png",
			"name":"Glass_normal",
			"uri":"Glass_normal.png"
		},
		{
			"mimeType":"image/png",
			"name":"Glass_baseColor",
			"uri":"Glass_baseColor.png"
		},
		{
			"mimeType":"image/png",
			"name":"Glass_metallicRoughness",
			"uri":"Glass_metallicRoughness.png"
		}
	],
	"accessors":[
		{
			"bufferView":0,
			"componentType":5126,
			"count":576,
			"max":[
				1.1005626916885376,
				1.0477386713027954,
				1.96745765209198
			],
			"min":[
				-0.9977953433990479,
				-1.0629465579986572,
				-1.8498942852020264
			],
			"type":"VEC3"
		},
		{
			"bufferView":1,
			"componentType":5126,
			"count":576,
			"type":"VEC3"
		},
		{
			"bufferView":2,
			"componentType":5126,
			"count":576,
			"type":"VEC2"
		},
		{
			"bufferView":3,
			"componentType":5123,
			"count":3258,
			"type":"SCALAR"
		},
		{
			"bufferView":4,
			"componentType":5126,
			"count":289,
			"max":[
				1.0824872255325317,
				1.0295568704605103,
				2.0002493858337402
			],
			"min":[
				-0.979719877243042,
				-1.0447649955749512,
				1.5849579572677612
			],
			"type":"VEC3"
		},
		{
			"bufferView":5,
			"componentType":5126,
			"count":289,
			"type":"VEC3"
		},
		{
			"bufferView":6,
			"componentType":5126,
			"count":289,
			"type":"VEC2"
		},
		{
			"bufferView":7,
			"componentType":5123,
			"count":1536,
			"type":"SCALAR"
		},
		{
			"bufferView":8,
			"componentType":5126,
			"count":5557,
			"max":[
				1.2228513956069946,
				1.1647248268127441,
				2.1906161308288574
			],
			"min":[
				-1.1209450960159302,
				-2.2182154655456543,
				-1.9244775772094727
			],
			"type":"VEC3"
		},
		{
			"bufferView":9,
			"componentType":5126,
			"count":5557,
			"type":"VEC3"
		},
		{
			"bufferView":10,
			"componentType":5126,
			"count":5557,
			"type":"VEC2"
		},
		{
			"bufferView":11,
			"componentType":5126,
			"count":5557,
			"type":"VEC2"
		},
		{
			"bufferView":12,
			"componentType":5126,
			"count":5557,
			"type":"VEC2"
		},
		{
			"bufferView":13,
			"componentType":5123,
			"count":25284,
			"type":"SCALAR"
		}
	],
	"bufferViews":[
		{
			"buffer":0,
			"byteLength":6912,
			"byteOffset":0,
			"target":34962
		},
		{
			"buffer":0,
			"byteLength":6912,
			"byteOffset":6912,
			"target":34962
		},
		{
			"buffer":0,
			"byteLength":4608,
			"byteOffset":13824,
			"target":34962
		},
		{
			"buffer":0,
			"byteLength":6516,
			"byteOffset":18432,
			"target":34963
		},
		{
			"buffer":0,
			"byteLength":3468,
			"byteOffset":24948,
			"target":34962
		},
		{
			"buffer":0,
			"byteLength":3468,
			"byteOffset":28416,
			"target":34962
		},
		{
			"buffer":0,
			"byteLength":2312,
			"byteOffset":31884,
			"target":34962
		},
		{
			"buffer":0,
			"byteLength":3072,
			"byteOffset":34196,
			"target":34963
		},
		{
			"buffer":0,
			"byteLength":66684,
			"byteOffset":37268,
			"target":34962
		},
		{
			"buffer":0,
			"byteLength":66684,
			"byteOffset":103952,
			"target":34962
		},
		{
			"buffer":0,
			"byteLength":44456,
			"byteOffset":170636,
			"target":34962
		},
		{
			"buffer":0,
			"byteLength":44456,
			"byteOffset":215092,
			"target":34962
		},
		{
			"buffer":0,
			"byteLength":44456,
			"byteOffset":259548,
			"target":34962
		},
		{
			"buffer":0,
			"byteLength":50568,
			"byteOffset":304004,
			"target":34963
		}
	],
	"samplers":[
		{
			"magFilter":9729,
			"minFilter":9987
		}
	],
	"buffers":[
		{
			"byteLength":354572,
			"uri":"slowar.bin"
		}
	]
}
