{
	"asset":{
		"generator":"Khronos glTF Blender I/O v4.3.47",
		"version":"2.0"
	},
	"scene":0,
	"scenes":[
		{
			"name":"Scene",
			"nodes":[
				5,
				8
			]
		}
	],
	"nodes":[
		{
			"name":"pSolid1"
		},
		{
			"mesh":0,
			"name":"pSolid2_lambert1_0"
		},
		{
			"children":[
				1
			],
			"name":"pSolid2"
		},
		{
			"children":[
				0,
				2
			],
			"name":"RootNode"
		},
		{
			"children":[
				3
			],
			"name":"93bc4f32d8d045459d8466476336e30c.fbx",
			"rotation":[
				0.70710688829422,
				0,
				0,
				0.7071066498756409
			],
			"scale":[
				0.009999999776482582,
				0.010000000707805157,
				0.010000000707805157
			]
		},
		{
			"children":[
				4
			],
			"name":"Sketchfab_model",
			"rotation":[
				-0.70710688829422,
				0,
				0,
				0.7071066498756409
			]
		},
		{
			"mesh":1,
			"name":"Object_2"
		},
		{
			"children":[
				6
			],
			"name":"b6eb88005c704c23a277b639e9f5693c.obj.cleaner.materialmerger.gle"
		},
		{
			"children":[
				7
			],
			"name":"Sketchfab_model.001",
			"rotation":[
				-0.70710688829422,
				0,
				0,
				0.7071066498756409
			],
			"scale":[
				0.01366182416677475,
				0.013661826029419899,
				0.013661826029419899
			]
		}
	],
	"materials":[
		{
			"doubleSided":true,
			"name":"lambert1",
			"pbrMetallicRoughness":{
				"baseColorFactor":[
					0.5,
					0.5,
					0.5,
					1
				],
				"metallicFactor":0,
				"roughnessFactor":0.6000000238418579
			}
		},
		{
			"doubleSided":true,
			"name":"blinn1SG",
			"pbrMetallicRoughness":{
				"baseColorTexture":{
					"index":0
				},
				"metallicFactor":0,
				"roughnessFactor":0.6000000238418579
			}
		}
	],
	"meshes":[
		{
			"name":"pSolid2_lambert1_0",
			"primitives":[
				{
					"attributes":{
						"POSITION":0,
						"NORMAL":1,
						"TEXCOORD_0":2
					},
					"indices":3,
					"material":0
				}
			]
		},
		{
			"name":"Object_0",
			"primitives":[
				{
					"attributes":{
						"POSITION":4,
						"NORMAL":5,
						"TEXCOORD_0":6
					},
					"indices":7,
					"material":1
				}
			]
		}
	],
	"textures":[
		{
			"sampler":0,
			"source":0
		}
	],
	"images":[
		{
			"mimeType":"image/jpeg",
			"name":"blinn1SG_baseColor",
			"uri":"blinn1SG_baseColor.jpg"
		}
	],
	"accessors":[
		{
			"bufferView":0,
			"componentType":5126,
			"count":120,
			"max":[
				0.02444065921008587,
				0.02477700635790825,
				0.024117127060890198
			],
			"min":[
				-0.02444065921008587,
				-0.02477700635790825,
				-0.024117127060890198
			],
			"type":"VEC3"
		},
		{
			"bufferView":1,
			"componentType":5126,
			"count":120,
			"type":"VEC3"
		},
		{
			"bufferView":2,
			"componentType":5126,
			"count":120,
			"type":"VEC2"
		},
		{
			"bufferView":3,
			"componentType":5123,
			"count":348,
			"type":"SCALAR"
		},
		{
			"bufferView":4,
			"componentType":5126,
			"count":530,
			"max":[
				1.9084850549697876,
				1.9052250385284424,
				1.298151969909668
			],
			"min":[
				-1.9084850549697876,
				-1.9052259922027588,
				-0.4004350006580353
			],
			"type":"VEC3"
		},
		{
			"bufferView":5,
			"componentType":5126,
			"count":530,
			"type":"VEC3"
		},
		{
			"bufferView":6,
			"componentType":5126,
			"count":530,
			"type":"VEC2"
		},
		{
			"bufferView":7,
			"componentType":5123,
			"count":1872,
			"type":"SCALAR"
		}
	],
	"bufferViews":[
		{
			"buffer":0,
			"byteLength":1440,
			"byteOffset":0,
			"target":34962
		},
		{
			"buffer":0,
			"byteLength":1440,
			"byteOffset":1440,
			"target":34962
		},
		{
			"buffer":0,
			"byteLength":960,
			"byteOffset":2880,
			"target":34962
		},
		{
			"buffer":0,
			"byteLength":696,
			"byteOffset":3840,
			"target":34963
		},
		{
			"buffer":0,
			"byteLength":6360,
			"byteOffset":4536,
			"target":34962
		},
		{
			"buffer":0,
			"byteLength":6360,
			"byteOffset":10896,
			"target":34962
		},
		{
			"buffer":0,
			"byteLength":4240,
			"byteOffset":17256,
			"target":34962
		},
		{
			"buffer":0,
			"byteLength":3744,
			"byteOffset":21496,
			"target":34963
		}
	],
	"samplers":[
		{
			"magFilter":9729,
			"minFilter":9987
		}
	],
	"buffers":[
		{
			"byteLength":25240,
			"uri":"sombra.bin"
		}
	]
}
