{
	"asset":{
		"generator":"Khronos glTF Blender I/O v4.5.48",
		"version":"2.0"
	},
	"scene":0,
	"scenes":[
		{
			"name":"Scene",
			"nodes":[
				0
			]
		}
	],
	"nodes":[
		{
			"mesh":0,
			"name":"table",
			"rotation":[
				0,
				0.4555681347846985,
				0,
				0.8902009129524231
			],
			"translation":[
				1.0163031816482544,
				-0.7977968454360962,
				0.6806436777114868
			]
		}
	],
	"materials":[
		{
			"doubleSided":true,
			"name":"white",
			"pbrMetallicRoughness":{
				"baseColorFactor":[
					0.800000011920929,
					0.800000011920929,
					0.800000011920929,
					1
				],
				"metallicFactor":0,
				"roughnessFactor":0.5
			}
		},
		{
			"doubleSided":true,
			"name":"dark-grey",
			"pbrMetallicRoughness":{
				"baseColorFactor":[
					0.14401070773601532,
					0.14401070773601532,
					0.14401070773601532,
					1
				],
				"metallicFactor":0.41818180680274963,
				"roughnessFactor":0.24909090995788574
			}
		}
	],
	"meshes":[
		{
			"name":"Cube.006",
			"primitives":[
				{
					"attributes":{
						"POSITION":0,
						"NORMAL":1,
						"TEXCOORD_0":2
					},
					"indices":3,
					"material":0
				},
				{
					"attributes":{
						"POSITION":4,
						"NORMAL":5,
						"TEXCOORD_0":6
					},
					"indices":7,
					"material":1
				}
			]
		}
	],
	"accessors":[
		{
			"bufferView":0,
			"componentType":5126,
			"count":244,
			"max":[
				0.5472849011421204,
				0.22546052932739258,
				0.2288697361946106
			],
			"min":[
				-0.5472849011421204,
				-0.10520724952220917,
				-0.20097468793392181
			],
			"type":"VEC3"
		},
		{
			"bufferView":1,
			"componentType":5126,
			"count":244,
			"type":"VEC3"
		},
		{
			"bufferView":2,
			"componentType":5126,
			"count":244,
			"type":"VEC2"
		},
		{
			"bufferView":3,
			"componentType":5123,
			"count":456,
			"type":"SCALAR"
		},
		{
			"bufferView":4,
			"componentType":5126,
			"count":134,
			"max":[
				0.5472849011421204,
				0.24165494740009308,
				0.20566695928573608
			],
			"min":[
				-0.5472849011421204,
				-0.10520724952220917,
				-0.20097468793392181
			],
			"type":"VEC3"
		},
		{
			"bufferView":5,
			"componentType":5126,
			"count":134,
			"type":"VEC3"
		},
		{
			"bufferView":6,
			"componentType":5126,
			"count":134,
			"type":"VEC2"
		},
		{
			"bufferView":7,
			"componentType":5123,
			"count":216,
			"type":"SCALAR"
		}
	],
	"bufferViews":[
		{
			"buffer":0,
			"byteLength":2928,
			"byteOffset":0,
			"target":34962
		},
		{
			"buffer":0,
			"byteLength":2928,
			"byteOffset":2928,
			"target":34962
		},
		{
			"buffer":0,
			"byteLength":1952,
			"byteOffset":5856,
			"target":34962
		},
		{
			"buffer":0,
			"byteLength":912,
			"byteOffset":7808,
			"target":34963
		},
		{
			"buffer":0,
			"byteLength":1608,
			"byteOffset":8720,
			"target":34962
		},
		{
			"buffer":0,
			"byteLength":1608,
			"byteOffset":10328,
			"target":34962
		},
		{
			"buffer":0,
			"byteLength":1072,
			"byteOffset":11936,
			"target":34962
		},
		{
			"buffer":0,
			"byteLength":432,
			"byteOffset":13008,
			"target":34963
		}
	],
	"buffers":[
		{
			"byteLength":13440,
			"uri":"table.bin"
		}
	]
}
