{
	"asset":{
		"generator":"Khronos glTF Blender I/O v4.3.47",
		"version":"2.0"
	},
	"scene":0,
	"scenes":[
		{
			"name":"Scene",
			"nodes":[
				1,
				6,
				7,
				8,
				10,
				16
			]
		}
	],
	"nodes":[
		{
			"name":"b6eb88005c704c23a277b639e9f5693c.obj.cleaner.materialmerger.gle"
		},
		{
			"children":[
				0
			],
			"name":"Sketchfab_model.001",
			"rotation":[
				-0.70710688829422,
				0,
				0,
				0.7071066498756409
			],
			"scale":[
				0.01366182416677475,
				0.013661826029419899,
				0.013661826029419899
			]
		},
		{
			"name":"Valenok Tip A001",
			"rotation":[
				-0.70710688829422,
				0,
				0,
				0.7071066498756409
			],
			"scale":[
				0.000821622961666435,
				0.0008216227870434523,
				0.0008216227870434523
			],
			"translation":[
				0.006841773167252541,
				0.005519614554941654,
				0.0015923093305900693
			]
		},
		{
			"name":"Valenok Tip C001",
			"rotation":[
				-0.70710688829422,
				0,
				0,
				0.7071066498756409
			],
			"translation":[
				10.018585205078125,
				0.34044647216796875,
				-0.1645221710205078
			]
		},
		{
			"children":[
				2,
				3
			],
			"name":"RootNode"
		},
		{
			"children":[
				4
			],
			"name":"732d894de3324245b0b25994f427d978.fbx",
			"rotation":[
				0.70710688829422,
				0,
				0,
				0.7071066498756409
			]
		},
		{
			"children":[
				5
			],
			"name":"Sketchfab_model",
			"rotation":[
				-0.70710688829422,
				0,
				0,
				0.7071066498756409
			]
		},
		{
			"name":"Object_4",
			"rotation":[
				0,
				0,
				-0.08715575188398361,
				0.9961947202682495
			],
			"translation":[
				2.8659238815307617,
				8.419783592224121,
				25.349449157714844
			]
		},
		{
			"name":"Object_12",
			"rotation":[
				0,
				0,
				-0.08715574443340302,
				0.9961947202682495
			],
			"translation":[
				2.35117244720459,
				8.087905883789062,
				25.001651763916016
			]
		},
		{
			"name":"onigiri.obj.cleaner.materialmerger.gles"
		},
		{
			"children":[
				9
			],
			"name":"Sketchfab_model.002",
			"rotation":[
				-0.70710688829422,
				0,
				0,
				0.7071066498756409
			]
		},
		{
			"mesh":0,
			"name":"Mdl_0_Mtl_df_0_m"
		},
		{
			"children":[
				11
			],
			"name":"_0_0_node"
		},
		{
			"mesh":1,
			"name":"Mdl_0_Mtl_df_1_m"
		},
		{
			"children":[
				13
			],
			"name":"_1_0_node"
		},
		{
			"children":[
				12,
				14
			],
			"name":"Collada visual scene group",
			"rotation":[
				0.70710688829422,
				0,
				0,
				0.7071066498756409
			]
		},
		{
			"children":[
				15
			],
			"name":"Sketchfab_model.003",
			"rotation":[
				-0.7071069478988647,
				0,
				0,
				0.7071066498756409
			],
			"scale":[
				0.002595925470814109,
				0.0025959257036447525,
				0.0025959257036447525
			],
			"translation":[
				0,
				-0.0033694307785481215,
				0
			]
		}
	],
	"materials":[
		{
			"doubleSided":true,
			"name":"df_0_m_mat",
			"pbrMetallicRoughness":{
				"baseColorTexture":{
					"index":0
				},
				"metallicFactor":0,
				"roughnessFactor":0.6000000238418579
			}
		},
		{
			"doubleSided":true,
			"name":"df_1_m_mat",
			"pbrMetallicRoughness":{
				"baseColorTexture":{
					"index":1
				},
				"metallicFactor":0,
				"roughnessFactor":0.6000000238418579
			}
		}
	],
	"meshes":[
		{
			"name":"Mdl_0_Mtl_df_0_m",
			"primitives":[
				{
					"attributes":{
						"POSITION":0,
						"NORMAL":1,
						"TEXCOORD_0":2
					},
					"indices":3,
					"material":0
				}
			]
		},
		{
			"name":"Mdl_0_Mtl_df_1_m",
			"primitives":[
				{
					"attributes":{
						"POSITION":4,
						"NORMAL":5,
						"TEXCOORD_0":6
					},
					"indices":7,
					"material":1
				}
			]
		}
	],
	"textures":[
		{
			"sampler":0,
			"source":0
		},
		{
			"sampler":1,
			"source":1
		}
	],
	"images":[
		{
			"mimeType":"image/png",
			"name":"df_0_m_mat_baseColor",
			"uri":"df_0_m_mat_baseColor.png"
		},
		{
			"mimeType":"image/png",
			"name":"df_1_m_mat_baseColor",
			"uri":"df_1_m_mat_baseColor.png"
		}
	],
	"accessors":[
		{
			"bufferView":0,
			"componentType":5126,
			"count":453,
			"max":[
				5.777440071105957,
				4.688179969787598,
				5.777440071105957
			],
			"min":[
				-5.777440071105957,
				0.3059999942779541,
				-5.777440071105957
			],
			"type":"VEC3"
		},
		{
			"bufferView":1,
			"componentType":5126,
			"count":453,
			"type":"VEC3"
		},
		{
			"bufferView":2,
			"componentType":5126,
			"count":453,
			"type":"VEC2"
		},
		{
			"bufferView":3,
			"componentType":5123,
			"count":2274,
			"type":"SCALAR"
		},
		{
			"bufferView":4,
			"componentType":5126,
			"count":31,
			"max":[
				2.607800006866455,
				3.940200090408325,
				2.411940097808838
			],
			"min":[
				-2.2426400184631348,
				3.940200090408325,
				-2.411940097808838
			],
			"type":"VEC3"
		},
		{
			"bufferView":5,
			"componentType":5126,
			"count":31,
			"type":"VEC3"
		},
		{
			"bufferView":6,
			"componentType":5126,
			"count":31,
			"type":"VEC2"
		},
		{
			"bufferView":7,
			"componentType":5123,
			"count":90,
			"type":"SCALAR"
		}
	],
	"bufferViews":[
		{
			"buffer":0,
			"byteLength":5436,
			"byteOffset":0,
			"target":34962
		},
		{
			"buffer":0,
			"byteLength":5436,
			"byteOffset":5436,
			"target":34962
		},
		{
			"buffer":0,
			"byteLength":3624,
			"byteOffset":10872,
			"target":34962
		},
		{
			"buffer":0,
			"byteLength":4548,
			"byteOffset":14496,
			"target":34963
		},
		{
			"buffer":0,
			"byteLength":372,
			"byteOffset":19044,
			"target":34962
		},
		{
			"buffer":0,
			"byteLength":372,
			"byteOffset":19416,
			"target":34962
		},
		{
			"buffer":0,
			"byteLength":248,
			"byteOffset":19788,
			"target":34962
		},
		{
			"buffer":0,
			"byteLength":180,
			"byteOffset":20036,
			"target":34963
		}
	],
	"samplers":[
		{
			"magFilter":9729,
			"minFilter":9987,
			"wrapS":33071,
			"wrapT":33071
		},
		{
			"magFilter":9729,
			"minFilter":9987
		}
	],
	"buffers":[
		{
			"byteLength":20216,
			"uri":"tralala.bin"
		}
	]
}
