{
	"asset":{
		"generator":"Khronos glTF Blender I/O v4.3.47",
		"version":"2.0"
	},
	"scene":0,
	"scenes":[
		{
			"name":"Scene",
			"nodes":[
				0
			]
		}
	],
	"nodes":[
		{
			"mesh":0,
			"name":"Cylinder.001",
			"translation":[
				0.8669003248214722,
				-0.5042111873626709,
				0.9306071400642395
			]
		}
	],
	"materials":[
		{
			"doubleSided":true,
			"name":"red.001",
			"pbrMetallicRoughness":{
				"baseColorFactor":[
					0.8001648187637329,
					0.1111927330493927,
					0.09794091433286667,
					1
				],
				"metallicFactor":0.24074074625968933,
				"roughnessFactor":0.8981481790542603
			}
		},
		{
			"doubleSided":true,
			"name":"dark-grey.001",
			"pbrMetallicRoughness":{
				"baseColorFactor":[
					0.14401070773601532,
					0.14401070773601532,
					0.14401070773601532,
					1
				],
				"metallicFactor":0.41818180680274963,
				"roughnessFactor":0.24909090995788574
			}
		}
	],
	"meshes":[
		{
			"name":"Cylinder.001",
			"primitives":[
				{
					"attributes":{
						"POSITION":0,
						"NORMAL":1,
						"TEXCOORD_0":2
					},
					"indices":3,
					"material":0
				},
				{
					"attributes":{
						"POSITION":4,
						"NORMAL":5,
						"TEXCOORD_0":6
					},
					"indices":7,
					"material":1
				}
			]
		}
	],
	"accessors":[
		{
			"bufferView":0,
			"componentType":5126,
			"count":160,
			"max":[
				0.08335362374782562,
				0.0486837662756443,
				0.08335369825363159
			],
			"min":[
				-0.083353690803051,
				-0.08137770742177963,
				-0.08335360139608383
			],
			"type":"VEC3"
		},
		{
			"bufferView":1,
			"componentType":5126,
			"count":160,
			"type":"VEC3"
		},
		{
			"bufferView":2,
			"componentType":5126,
			"count":160,
			"type":"VEC2"
		},
		{
			"bufferView":3,
			"componentType":5123,
			"count":240,
			"type":"SCALAR"
		},
		{
			"bufferView":4,
			"componentType":5126,
			"count":8,
			"max":[
				0.0648500844836235,
				0.04105916619300842,
				0.06485015898942947
			],
			"min":[
				-0.06485015153884888,
				0.04105916619300842,
				-0.06485006958246231
			],
			"type":"VEC3"
		},
		{
			"bufferView":5,
			"componentType":5126,
			"count":8,
			"type":"VEC3"
		},
		{
			"bufferView":6,
			"componentType":5126,
			"count":8,
			"type":"VEC2"
		},
		{
			"bufferView":7,
			"componentType":5123,
			"count":18,
			"type":"SCALAR"
		}
	],
	"bufferViews":[
		{
			"buffer":0,
			"byteLength":1920,
			"byteOffset":0,
			"target":34962
		},
		{
			"buffer":0,
			"byteLength":1920,
			"byteOffset":1920,
			"target":34962
		},
		{
			"buffer":0,
			"byteLength":1280,
			"byteOffset":3840,
			"target":34962
		},
		{
			"buffer":0,
			"byteLength":480,
			"byteOffset":5120,
			"target":34963
		},
		{
			"buffer":0,
			"byteLength":96,
			"byteOffset":5600,
			"target":34962
		},
		{
			"buffer":0,
			"byteLength":96,
			"byteOffset":5696,
			"target":34962
		},
		{
			"buffer":0,
			"byteLength":64,
			"byteOffset":5792,
			"target":34962
		},
		{
			"buffer":0,
			"byteLength":36,
			"byteOffset":5856,
			"target":34963
		}
	],
	"buffers":[
		{
			"byteLength":5892,
			"uri":"tree200000.bin"
		}
	]
}
