{
	"asset":{
		"generator":"Khronos glTF Blender I/O v4.3.47",
		"version":"2.0"
	},
	"scene":0,
	"scenes":[
		{
			"name":"Scene",
			"nodes":[
				0
			]
		}
	],
	"nodes":[
		{
			"mesh":0,
			"name":"tree.001",
			"translation":[
				0,
				0.37768131494522095,
				0
			]
		}
	],
	"materials":[
		{
			"doubleSided":true,
			"name":"blue.001",
			"pbrMetallicRoughness":{
				"baseColorFactor":[
					0.017829544842243195,
					0.2031772881746292,
					0.8002121448516846,
					1
				],
				"metallicFactor":0,
				"roughnessFactor":0.5
			}
		},
		{
			"doubleSided":true,
			"name":"blue.005",
			"pbrMetallicRoughness":{
				"baseColorFactor":[
					0.017829544842243195,
					0.2031772881746292,
					0.8002121448516846,
					1
				],
				"metallicFactor":0,
				"roughnessFactor":0.5
			}
		},
		{
			"doubleSided":true,
			"name":"purple.002",
			"pbrMetallicRoughness":{
				"baseColorFactor":[
					0.8002276420593262,
					0.10916207730770111,
					0.7057665586471558,
					1
				],
				"metallicFactor":0,
				"roughnessFactor":0.5
			}
		}
	],
	"meshes":[
		{
			"name":"Icosphere.001",
			"primitives":[
				{
					"attributes":{
						"POSITION":0,
						"NORMAL":1,
						"TEXCOORD_0":2
					},
					"indices":3,
					"material":0
				},
				{
					"attributes":{
						"POSITION":4,
						"NORMAL":5,
						"TEXCOORD_0":6
					},
					"indices":3,
					"material":1
				},
				{
					"attributes":{
						"POSITION":7,
						"NORMAL":8,
						"TEXCOORD_0":9
					},
					"indices":10,
					"material":2
				}
			]
		}
	],
	"accessors":[
		{
			"bufferView":0,
			"componentType":5126,
			"count":240,
			"max":[
				0.07287859916687012,
				0.07662893831729889,
				0.0766289010643959
			],
			"min":[
				-0.07287847995758057,
				-0.07662889361381531,
				-0.07662893086671829
			],
			"type":"VEC3"
		},
		{
			"bufferView":1,
			"componentType":5126,
			"count":240,
			"type":"VEC3"
		},
		{
			"bufferView":2,
			"componentType":5126,
			"count":240,
			"type":"VEC2"
		},
		{
			"bufferView":3,
			"componentType":5123,
			"count":240,
			"type":"SCALAR"
		},
		{
			"bufferView":4,
			"componentType":5126,
			"count":240,
			"max":[
				-0.050920773297548294,
				-0.02004290372133255,
				0.19226840138435364
			],
			"min":[
				-0.14318537712097168,
				-0.1170554980635643,
				0.09525580704212189
			],
			"type":"VEC3"
		},
		{
			"bufferView":5,
			"componentType":5126,
			"count":240,
			"type":"VEC3"
		},
		{
			"bufferView":6,
			"componentType":5126,
			"count":240,
			"type":"VEC2"
		},
		{
			"bufferView":7,
			"componentType":5126,
			"count":2242,
			"max":[
				-0.0203157439827919,
				-0.02734220027923584,
				0.1665470451116562
			],
			"min":[
				-0.17640796303749084,
				-0.37807542085647583,
				-0.07578666508197784
			],
			"type":"VEC3"
		},
		{
			"bufferView":8,
			"componentType":5126,
			"count":2242,
			"type":"VEC3"
		},
		{
			"bufferView":9,
			"componentType":5126,
			"count":2242,
			"type":"VEC2"
		},
		{
			"bufferView":10,
			"componentType":5123,
			"count":3396,
			"type":"SCALAR"
		}
	],
	"bufferViews":[
		{
			"buffer":0,
			"byteLength":2880,
			"byteOffset":0,
			"target":34962
		},
		{
			"buffer":0,
			"byteLength":2880,
			"byteOffset":2880,
			"target":34962
		},
		{
			"buffer":0,
			"byteLength":1920,
			"byteOffset":5760,
			"target":34962
		},
		{
			"buffer":0,
			"byteLength":480,
			"byteOffset":7680,
			"target":34963
		},
		{
			"buffer":0,
			"byteLength":2880,
			"byteOffset":8160,
			"target":34962
		},
		{
			"buffer":0,
			"byteLength":2880,
			"byteOffset":11040,
			"target":34962
		},
		{
			"buffer":0,
			"byteLength":1920,
			"byteOffset":13920,
			"target":34962
		},
		{
			"buffer":0,
			"byteLength":26904,
			"byteOffset":15840,
			"target":34962
		},
		{
			"buffer":0,
			"byteLength":26904,
			"byteOffset":42744,
			"target":34962
		},
		{
			"buffer":0,
			"byteLength":17936,
			"byteOffset":69648,
			"target":34962
		},
		{
			"buffer":0,
			"byteLength":6792,
			"byteOffset":87584,
			"target":34963
		}
	],
	"buffers":[
		{
			"byteLength":94376,
			"uri":"tree500.bin"
		}
	]
}
