{
	"asset":{
		"generator":"Khronos glTF Blender I/O v4.5.48",
		"version":"2.0"
	},
	"scene":0,
	"scenes":[
		{
			"name":"Scene",
			"nodes":[
				4
			]
		}
	],
	"nodes":[
		{
			"mesh":0,
			"name":"Cube.001",
			"translation":[
				0,
				0,
				-0.5675130486488342
			]
		},
		{
			"mesh":1,
			"name":"Cube.002",
			"translation":[
				0,
				0,
				0.5574678778648376
			]
		},
		{
			"mesh":2,
			"name":"Cube.003"
		},
		{
			"mesh":3,
			"name":"Icosphere",
			"translation":[
				0,
				0.09927499294281006,
				0.5267952680587769
			]
		},
		{
			"children":[
				0,
				1,
				2,
				3
			],
			"mesh":4,
			"name":"dog",
			"rotation":[
				0,
				-0.5168117880821228,
				0,
				0.8560990691184998
			],
			"scale":[
				0.29205331206321716,
				0.29205331206321716,
				0.29205331206321716
			],
			"translation":[
				1.1673176288604736,
				-0.5030787587165833,
				0.44238975644111633
			]
		}
	],
	"materials":[
		{
			"doubleSided":true,
			"name":"black",
			"pbrMetallicRoughness":{
				"baseColorFactor":[
					0.062083274126052856,
					0.062083274126052856,
					0.062083274126052856,
					1
				],
				"metallicFactor":0,
				"roughnessFactor":0.8425925970077515
			}
		},
		{
			"doubleSided":true,
			"name":"white",
			"pbrMetallicRoughness":{
				"baseColorFactor":[
					0.800000011920929,
					0.800000011920929,
					0.800000011920929,
					1
				],
				"metallicFactor":0,
				"roughnessFactor":0.5
			}
		},
		{
			"doubleSided":true,
			"name":"green",
			"pbrMetallicRoughness":{
				"baseColorFactor":[
					0.015697641298174858,
					0.8006061315536499,
					0.010418032296001911,
					1
				],
				"metallicFactor":0.2836363911628723,
				"roughnessFactor":0.20181816816329956
			}
		},
		{
			"doubleSided":true,
			"name":"car",
			"pbrMetallicRoughness":{
				"baseColorFactor":[
					0.009145151823759079,
					0.8002825975418091,
					0,
					1
				],
				"metallicFactor":0,
				"roughnessFactor":0.7870368957519531
			}
		}
	],
	"meshes":[
		{
			"name":"Cube.003",
			"primitives":[
				{
					"attributes":{
						"POSITION":0,
						"NORMAL":1,
						"TEXCOORD_0":2
					},
					"indices":3,
					"material":0
				}
			]
		},
		{
			"name":"Cube.004",
			"primitives":[
				{
					"attributes":{
						"POSITION":4,
						"NORMAL":5,
						"TEXCOORD_0":6
					},
					"indices":7,
					"material":0
				}
			]
		},
		{
			"name":"Cube.005",
			"primitives":[
				{
					"attributes":{
						"POSITION":8,
						"NORMAL":9,
						"TEXCOORD_0":10
					},
					"indices":11,
					"material":0
				}
			]
		},
		{
			"name":"Icosphere.001",
			"primitives":[
				{
					"attributes":{
						"POSITION":12,
						"NORMAL":13,
						"TEXCOORD_0":14
					},
					"indices":15,
					"material":1
				},
				{
					"attributes":{
						"POSITION":16,
						"NORMAL":17,
						"TEXCOORD_0":18
					},
					"indices":19,
					"material":2
				}
			]
		},
		{
			"name":"Cube.002",
			"primitives":[
				{
					"attributes":{
						"POSITION":20,
						"NORMAL":21,
						"TEXCOORD_0":22
					},
					"indices":23,
					"material":3
				}
			]
		}
	],
	"accessors":[
		{
			"bufferView":0,
			"componentType":5126,
			"count":288,
			"max":[
				0.07665057480335236,
				0.09379889070987701,
				0.04273061081767082
			],
			"min":[
				-0.07665057480335236,
				-0.05992221087217331,
				-0.054721035063266754
			],
			"type":"VEC3"
		},
		{
			"bufferView":1,
			"componentType":5126,
			"count":288,
			"type":"VEC3"
		},
		{
			"bufferView":2,
			"componentType":5126,
			"count":288,
			"type":"VEC2"
		},
		{
			"bufferView":3,
			"componentType":5123,
			"count":432,
			"type":"SCALAR"
		},
		{
			"bufferView":4,
			"componentType":5126,
			"count":416,
			"max":[
				0.10529766231775284,
				0.014560357667505741,
				0.02414618991315365
			],
			"min":[
				-0.10529766976833344,
				-0.05612380802631378,
				-0.03511374443769455
			],
			"type":"VEC3"
		},
		{
			"bufferView":5,
			"componentType":5126,
			"count":416,
			"type":"VEC3"
		},
		{
			"bufferView":6,
			"componentType":5126,
			"count":416,
			"type":"VEC2"
		},
		{
			"bufferView":7,
			"componentType":5123,
			"count":624,
			"type":"SCALAR"
		},
		{
			"bufferView":8,
			"componentType":5126,
			"count":640,
			"max":[
				0.4620109498500824,
				0.10006807744503021,
				0.3376474976539612
			],
			"min":[
				-0.4620109498500824,
				-0.14782197773456573,
				-0.3376474976539612
			],
			"type":"VEC3"
		},
		{
			"bufferView":9,
			"componentType":5126,
			"count":640,
			"type":"VEC3"
		},
		{
			"bufferView":10,
			"componentType":5126,
			"count":640,
			"type":"VEC2"
		},
		{
			"bufferView":11,
			"componentType":5123,
			"count":960,
			"type":"SCALAR"
		},
		{
			"bufferView":12,
			"componentType":5126,
			"count":444,
			"max":[
				0.25064682960510254,
				0.07726042717695236,
				0.06572148203849792
			],
			"min":[
				-0.25064682960510254,
				-0.07726042717695236,
				-0.07726036012172699
			],
			"type":"VEC3"
		},
		{
			"bufferView":13,
			"componentType":5126,
			"count":444,
			"type":"VEC3"
		},
		{
			"bufferView":14,
			"componentType":5126,
			"count":444,
			"type":"VEC2"
		},
		{
			"bufferView":15,
			"componentType":5123,
			"count":444,
			"type":"SCALAR"
		},
		{
			"bufferView":16,
			"componentType":5126,
			"count":36,
			"max":[
				0.22258028388023376,
				0.04061870276927948,
				0.07726036012172699
			],
			"min":[
				-0.22258028388023376,
				-0.04061870276927948,
				0.06250455975532532
			],
			"type":"VEC3"
		},
		{
			"bufferView":17,
			"componentType":5126,
			"count":36,
			"type":"VEC3"
		},
		{
			"bufferView":18,
			"componentType":5126,
			"count":36,
			"type":"VEC2"
		},
		{
			"bufferView":19,
			"componentType":5123,
			"count":36,
			"type":"SCALAR"
		},
		{
			"bufferView":20,
			"componentType":5126,
			"count":1152,
			"max":[
				0.4079621434211731,
				0.4046773314476013,
				0.5643448233604431
			],
			"min":[
				-0.4079621434211731,
				-0.3295201063156128,
				-0.5643448233604431
			],
			"type":"VEC3"
		},
		{
			"bufferView":21,
			"componentType":5126,
			"count":1152,
			"type":"VEC3"
		},
		{
			"bufferView":22,
			"componentType":5126,
			"count":1152,
			"type":"VEC2"
		},
		{
			"bufferView":23,
			"componentType":5123,
			"count":1728,
			"type":"SCALAR"
		}
	],
	"bufferViews":[
		{
			"buffer":0,
			"byteLength":3456,
			"byteOffset":0,
			"target":34962
		},
		{
			"buffer":0,
			"byteLength":3456,
			"byteOffset":3456,
			"target":34962
		},
		{
			"buffer":0,
			"byteLength":2304,
			"byteOffset":6912,
			"target":34962
		},
		{
			"buffer":0,
			"byteLength":864,
			"byteOffset":9216,
			"target":34963
		},
		{
			"buffer":0,
			"byteLength":4992,
			"byteOffset":10080,
			"target":34962
		},
		{
			"buffer":0,
			"byteLength":4992,
			"byteOffset":15072,
			"target":34962
		},
		{
			"buffer":0,
			"byteLength":3328,
			"byteOffset":20064,
			"target":34962
		},
		{
			"buffer":0,
			"byteLength":1248,
			"byteOffset":23392,
			"target":34963
		},
		{
			"buffer":0,
			"byteLength":7680,
			"byteOffset":24640,
			"target":34962
		},
		{
			"buffer":0,
			"byteLength":7680,
			"byteOffset":32320,
			"target":34962
		},
		{
			"buffer":0,
			"byteLength":5120,
			"byteOffset":40000,
			"target":34962
		},
		{
			"buffer":0,
			"byteLength":1920,
			"byteOffset":45120,
			"target":34963
		},
		{
			"buffer":0,
			"byteLength":5328,
			"byteOffset":47040,
			"target":34962
		},
		{
			"buffer":0,
			"byteLength":5328,
			"byteOffset":52368,
			"target":34962
		},
		{
			"buffer":0,
			"byteLength":3552,
			"byteOffset":57696,
			"target":34962
		},
		{
			"buffer":0,
			"byteLength":888,
			"byteOffset":61248,
			"target":34963
		},
		{
			"buffer":0,
			"byteLength":432,
			"byteOffset":62136,
			"target":34962
		},
		{
			"buffer":0,
			"byteLength":432,
			"byteOffset":62568,
			"target":34962
		},
		{
			"buffer":0,
			"byteLength":288,
			"byteOffset":63000,
			"target":34962
		},
		{
			"buffer":0,
			"byteLength":72,
			"byteOffset":63288,
			"target":34963
		},
		{
			"buffer":0,
			"byteLength":13824,
			"byteOffset":63360,
			"target":34962
		},
		{
			"buffer":0,
			"byteLength":13824,
			"byteOffset":77184,
			"target":34962
		},
		{
			"buffer":0,
			"byteLength":9216,
			"byteOffset":91008,
			"target":34962
		},
		{
			"buffer":0,
			"byteLength":3456,
			"byteOffset":100224,
			"target":34963
		}
	],
	"buffers":[
		{
			"byteLength":103680,
			"uri":"ufo-dog.bin"
		}
	]
}
