{
	"asset":{
		"generator":"Khronos glTF Blender I/O v4.5.48",
		"version":"2.0"
	},
	"scene":0,
	"scenes":[
		{
			"name":"Scene",
			"nodes":[
				0
			]
		}
	],
	"nodes":[
		{
			"mesh":0,
			"name":"ufo-gun",
			"translation":[
				0,
				-1.1279239654541016,
				0
			]
		}
	],
	"materials":[
		{
			"doubleSided":true,
			"name":"green",
			"pbrMetallicRoughness":{
				"baseColorFactor":[
					0.015697641298174858,
					0.8006061315536499,
					0.010418032296001911,
					1
				],
				"metallicFactor":0.2836363911628723,
				"roughnessFactor":0.20181816816329956
			}
		},
		{
			"doubleSided":true,
			"name":"dark-grey",
			"pbrMetallicRoughness":{
				"baseColorFactor":[
					0.14401070773601532,
					0.14401070773601532,
					0.14401070773601532,
					1
				],
				"metallicFactor":0.41818180680274963,
				"roughnessFactor":0.24909090995788574
			}
		},
		{
			"doubleSided":true,
			"name":"white",
			"pbrMetallicRoughness":{
				"baseColorFactor":[
					0.800000011920929,
					0.800000011920929,
					0.800000011920929,
					1
				],
				"metallicFactor":0,
				"roughnessFactor":0.5
			}
		}
	],
	"meshes":[
		{
			"name":"Cylinder.001",
			"primitives":[
				{
					"attributes":{
						"POSITION":0,
						"NORMAL":1,
						"TEXCOORD_0":2
					},
					"indices":3,
					"material":0
				},
				{
					"attributes":{
						"POSITION":4,
						"NORMAL":5,
						"TEXCOORD_0":6
					},
					"indices":7,
					"material":1
				},
				{
					"attributes":{
						"POSITION":8,
						"NORMAL":9,
						"TEXCOORD_0":10
					},
					"indices":11,
					"material":2
				}
			]
		}
	],
	"accessors":[
		{
			"bufferView":0,
			"componentType":5126,
			"count":16,
			"max":[
				0.283818781375885,
				0.5169921517372131,
				0.283818781375885
			],
			"min":[
				-0.283818781375885,
				0.5169921517372131,
				-0.283818781375885
			],
			"type":"VEC3"
		},
		{
			"bufferView":1,
			"componentType":5126,
			"count":16,
			"type":"VEC3"
		},
		{
			"bufferView":2,
			"componentType":5126,
			"count":16,
			"type":"VEC2"
		},
		{
			"bufferView":3,
			"componentType":5123,
			"count":42,
			"type":"SCALAR"
		},
		{
			"bufferView":4,
			"componentType":5126,
			"count":384,
			"max":[
				0.3758024573326111,
				0.5762742757797241,
				0.3758024573326111
			],
			"min":[
				-0.3758024573326111,
				0.35574474930763245,
				-0.3758024573326111
			],
			"type":"VEC3"
		},
		{
			"bufferView":5,
			"componentType":5126,
			"count":384,
			"type":"VEC3"
		},
		{
			"bufferView":6,
			"componentType":5126,
			"count":384,
			"type":"VEC2"
		},
		{
			"bufferView":7,
			"componentType":5123,
			"count":576,
			"type":"SCALAR"
		},
		{
			"bufferView":8,
			"componentType":5126,
			"count":160,
			"max":[
				0.34712713956832886,
				0.537172257900238,
				0.34712713956832886
			],
			"min":[
				-0.34712713956832886,
				0.21538029611110687,
				-0.34712713956832886
			],
			"type":"VEC3"
		},
		{
			"bufferView":9,
			"componentType":5126,
			"count":160,
			"type":"VEC3"
		},
		{
			"bufferView":10,
			"componentType":5126,
			"count":160,
			"type":"VEC2"
		},
		{
			"bufferView":11,
			"componentType":5123,
			"count":288,
			"type":"SCALAR"
		}
	],
	"bufferViews":[
		{
			"buffer":0,
			"byteLength":192,
			"byteOffset":0,
			"target":34962
		},
		{
			"buffer":0,
			"byteLength":192,
			"byteOffset":192,
			"target":34962
		},
		{
			"buffer":0,
			"byteLength":128,
			"byteOffset":384,
			"target":34962
		},
		{
			"buffer":0,
			"byteLength":84,
			"byteOffset":512,
			"target":34963
		},
		{
			"buffer":0,
			"byteLength":4608,
			"byteOffset":596,
			"target":34962
		},
		{
			"buffer":0,
			"byteLength":4608,
			"byteOffset":5204,
			"target":34962
		},
		{
			"buffer":0,
			"byteLength":3072,
			"byteOffset":9812,
			"target":34962
		},
		{
			"buffer":0,
			"byteLength":1152,
			"byteOffset":12884,
			"target":34963
		},
		{
			"buffer":0,
			"byteLength":1920,
			"byteOffset":14036,
			"target":34962
		},
		{
			"buffer":0,
			"byteLength":1920,
			"byteOffset":15956,
			"target":34962
		},
		{
			"buffer":0,
			"byteLength":1280,
			"byteOffset":17876,
			"target":34962
		},
		{
			"buffer":0,
			"byteLength":576,
			"byteOffset":19156,
			"target":34963
		}
	],
	"buffers":[
		{
			"byteLength":19732,
			"uri":"UFO-gun.bin"
		}
	]
}
