{
	"asset":{
		"generator":"Khronos glTF Blender I/O v4.5.48",
		"version":"2.0"
	},
	"scene":0,
	"scenes":[
		{
			"name":"Scene",
			"nodes":[
				0
			]
		}
	],
	"nodes":[
		{
			"mesh":0,
			"name":"roof-floor"
		}
	],
	"materials":[
		{
			"doubleSided":true,
			"name":"metal-main",
			"pbrMetallicRoughness":{
				"baseColorFactor":[
					0.25468453764915466,
					0.5928525328636169,
					0.7270748019218445,
					1
				],
				"metallicFactor":0.6909090876579285,
				"roughnessFactor":0.3254545331001282
			}
		},
		{
			"doubleSided":true,
			"name":"grey",
			"pbrMetallicRoughness":{
				"baseColorFactor":[
					0.6624355316162109,
					0.6624355316162109,
					0.6624355316162109,
					1
				],
				"metallicFactor":0.414545476436615,
				"roughnessFactor":0.33272725343704224
			}
		},
		{
			"doubleSided":true,
			"name":"dark-grey",
			"pbrMetallicRoughness":{
				"baseColorFactor":[
					0.14401070773601532,
					0.14401070773601532,
					0.14401070773601532,
					1
				],
				"metallicFactor":0.41818180680274963,
				"roughnessFactor":0.24909090995788574
			}
		}
	],
	"meshes":[
		{
			"name":"Cylinder",
			"primitives":[
				{
					"attributes":{
						"POSITION":0,
						"NORMAL":1,
						"TEXCOORD_0":2
					},
					"indices":3,
					"material":0
				},
				{
					"attributes":{
						"POSITION":4,
						"NORMAL":5,
						"TEXCOORD_0":6
					},
					"indices":7,
					"material":1
				},
				{
					"attributes":{
						"POSITION":8,
						"NORMAL":9,
						"TEXCOORD_0":10
					},
					"indices":11,
					"material":2
				}
			]
		}
	],
	"accessors":[
		{
			"bufferView":0,
			"componentType":5126,
			"count":558,
			"max":[
				1.5749746561050415,
				1.0288363695144653,
				1.5749746561050415
			],
			"min":[
				-1.5982677936553955,
				-0.900438129901886,
				-1.5749746561050415
			],
			"type":"VEC3"
		},
		{
			"bufferView":1,
			"componentType":5126,
			"count":558,
			"type":"VEC3"
		},
		{
			"bufferView":2,
			"componentType":5126,
			"count":558,
			"type":"VEC2"
		},
		{
			"bufferView":3,
			"componentType":5123,
			"count":1032,
			"type":"SCALAR"
		},
		{
			"bufferView":4,
			"componentType":5126,
			"count":192,
			"max":[
				1.4307037591934204,
				1.1565643548965454,
				1.4307036399841309
			],
			"min":[
				-1.4307036399841309,
				-0.900438129901886,
				-1.4307036399841309
			],
			"type":"VEC3"
		},
		{
			"bufferView":5,
			"componentType":5126,
			"count":192,
			"type":"VEC3"
		},
		{
			"bufferView":6,
			"componentType":5126,
			"count":192,
			"type":"VEC2"
		},
		{
			"bufferView":7,
			"componentType":5123,
			"count":372,
			"type":"SCALAR"
		},
		{
			"bufferView":8,
			"componentType":5126,
			"count":526,
			"max":[
				1.6909648180007935,
				0.43111908435821533,
				1.6909648180007935
			],
			"min":[
				-1.6909648180007935,
				-0.6884378790855408,
				-1.6909648180007935
			],
			"type":"VEC3"
		},
		{
			"bufferView":9,
			"componentType":5126,
			"count":526,
			"type":"VEC3"
		},
		{
			"bufferView":10,
			"componentType":5126,
			"count":526,
			"type":"VEC2"
		},
		{
			"bufferView":11,
			"componentType":5123,
			"count":1092,
			"type":"SCALAR"
		}
	],
	"bufferViews":[
		{
			"buffer":0,
			"byteLength":6696,
			"byteOffset":0,
			"target":34962
		},
		{
			"buffer":0,
			"byteLength":6696,
			"byteOffset":6696,
			"target":34962
		},
		{
			"buffer":0,
			"byteLength":4464,
			"byteOffset":13392,
			"target":34962
		},
		{
			"buffer":0,
			"byteLength":2064,
			"byteOffset":17856,
			"target":34963
		},
		{
			"buffer":0,
			"byteLength":2304,
			"byteOffset":19920,
			"target":34962
		},
		{
			"buffer":0,
			"byteLength":2304,
			"byteOffset":22224,
			"target":34962
		},
		{
			"buffer":0,
			"byteLength":1536,
			"byteOffset":24528,
			"target":34962
		},
		{
			"buffer":0,
			"byteLength":744,
			"byteOffset":26064,
			"target":34963
		},
		{
			"buffer":0,
			"byteLength":6312,
			"byteOffset":26808,
			"target":34962
		},
		{
			"buffer":0,
			"byteLength":6312,
			"byteOffset":33120,
			"target":34962
		},
		{
			"buffer":0,
			"byteLength":4208,
			"byteOffset":39432,
			"target":34962
		},
		{
			"buffer":0,
			"byteLength":2184,
			"byteOffset":43640,
			"target":34963
		}
	],
	"buffers":[
		{
			"byteLength":45824,
			"uri":"UFO.bin"
		}
	]
}
