{
	"asset":{
		"generator":"Khronos glTF Blender I/O v4.3.47",
		"version":"2.0"
	},
	"scene":0,
	"scenes":[
		{
			"name":"Scene",
			"nodes":[
				1,
				10,
				11
			]
		}
	],
	"nodes":[
		{
			"name":"b6eb88005c704c23a277b639e9f5693c.obj.cleaner.materialmerger.gle"
		},
		{
			"children":[
				0
			],
			"name":"Sketchfab_model.001",
			"rotation":[
				-0.70710688829422,
				0,
				0,
				0.7071066498756409
			],
			"scale":[
				0.01366182416677475,
				0.013661826029419899,
				0.013661826029419899
			]
		},
		{
			"mesh":0,
			"name":"Valenok Tip A_Valenok Tip A_0",
			"translation":[
				0,
				0,
				4.640991392079741e-06
			]
		},
		{
			"children":[
				2
			],
			"name":"Object_12",
			"rotation":[
				0,
				0,
				-0.08715574443340302,
				0.9961947202682495
			],
			"translation":[
				2.35117244720459,
				8.087905883789062,
				25.001651763916016
			]
		},
		{
			"children":[
				3
			],
			"name":"Valenok Tip A",
			"rotation":[
				-0.70710688829422,
				0,
				0,
				0.7071066498756409
			],
			"scale":[
				0.000821622961666435,
				0.0008216227870434523,
				0.0008216227870434523
			],
			"translation":[
				-0.010064838454127312,
				0.005519614554941654,
				0.0015923093305900693
			]
		},
		{
			"mesh":1,
			"name":"Valenok Tip A001_Valenok Tip A_0"
		},
		{
			"children":[
				5
			],
			"name":"Valenok Tip A001",
			"rotation":[
				-0.70710688829422,
				0,
				0,
				0.7071066498756409
			],
			"scale":[
				0.000821622961666435,
				0.0008216227870434523,
				0.0008216227870434523
			],
			"translation":[
				0.006841773167252541,
				0.005519614554941654,
				0.0015923093305900693
			]
		},
		{
			"name":"Valenok Tip C001",
			"rotation":[
				-0.70710688829422,
				0,
				0,
				0.7071066498756409
			],
			"translation":[
				10.018585205078125,
				0.34044647216796875,
				-0.1645221710205078
			]
		},
		{
			"children":[
				4,
				6,
				7
			],
			"name":"RootNode"
		},
		{
			"children":[
				8
			],
			"name":"732d894de3324245b0b25994f427d978.fbx",
			"rotation":[
				0.70710688829422,
				0,
				0,
				0.7071066498756409
			]
		},
		{
			"children":[
				9
			],
			"name":"Sketchfab_model",
			"rotation":[
				-0.70710688829422,
				0,
				0,
				0.7071066498756409
			]
		},
		{
			"name":"Object_4",
			"rotation":[
				0,
				0,
				-0.08715575188398361,
				0.9961947202682495
			],
			"translation":[
				2.8659238815307617,
				8.419783592224121,
				25.349449157714844
			]
		}
	],
	"materials":[
		{
			"doubleSided":true,
			"name":"Valenok_Tip_A",
			"normalTexture":{
				"index":0
			},
			"occlusionTexture":{
				"index":1
			},
			"pbrMetallicRoughness":{
				"baseColorTexture":{
					"index":2
				},
				"metallicRoughnessTexture":{
					"index":1
				}
			}
		}
	],
	"meshes":[
		{
			"name":"Valenok Tip A_Valenok Tip A_0",
			"primitives":[
				{
					"attributes":{
						"POSITION":0,
						"NORMAL":1,
						"TEXCOORD_0":2
					},
					"indices":3,
					"material":0
				}
			]
		},
		{
			"name":"Valenok Tip A001_Valenok Tip A_0",
			"primitives":[
				{
					"attributes":{
						"POSITION":4,
						"NORMAL":5,
						"TEXCOORD_0":6
					},
					"indices":7,
					"material":0
				}
			]
		}
	],
	"textures":[
		{
			"sampler":0,
			"source":0
		},
		{
			"sampler":0,
			"source":1
		},
		{
			"sampler":0,
			"source":2
		}
	],
	"images":[
		{
			"mimeType":"image/png",
			"name":"Valenok_Tip_C_normal",
			"uri":"Valenok_Tip_C_normal.png"
		},
		{
			"mimeType":"image/png",
			"name":"Valenok_Tip_C_metallicRoughness",
			"uri":"Valenok_Tip_C_metallicRoughness.png"
		},
		{
			"mimeType":"image/png",
			"name":"Valenok_Tip_C_baseColor",
			"uri":"Valenok_Tip_C_baseColor.png"
		}
	],
	"accessors":[
		{
			"bufferView":0,
			"componentType":5126,
			"count":528,
			"max":[
				8.410327911376953,
				9.386356353759766,
				-1.7029876708984375
			],
			"min":[
				-10.232336044311523,
				-26.132976531982422,
				-48.300315856933594
			],
			"type":"VEC3"
		},
		{
			"bufferView":1,
			"componentType":5126,
			"count":528,
			"type":"VEC3"
		},
		{
			"bufferView":2,
			"componentType":5126,
			"count":528,
			"type":"VEC2"
		},
		{
			"bufferView":3,
			"componentType":5123,
			"count":2676,
			"type":"SCALAR"
		},
		{
			"bufferView":4,
			"componentType":5126,
			"count":528,
			"max":[
				7.808548927307129,
				17.92736053466797,
				23.298664093017578
			],
			"min":[
				-8.94930362701416,
				-18.049623489379883,
				-23.298664093017578
			],
			"type":"VEC3"
		},
		{
			"bufferView":5,
			"componentType":5126,
			"count":528,
			"type":"VEC3"
		},
		{
			"bufferView":6,
			"componentType":5126,
			"count":528,
			"type":"VEC2"
		},
		{
			"bufferView":7,
			"componentType":5123,
			"count":2676,
			"type":"SCALAR"
		}
	],
	"bufferViews":[
		{
			"buffer":0,
			"byteLength":6336,
			"byteOffset":0,
			"target":34962
		},
		{
			"buffer":0,
			"byteLength":6336,
			"byteOffset":6336,
			"target":34962
		},
		{
			"buffer":0,
			"byteLength":4224,
			"byteOffset":12672,
			"target":34962
		},
		{
			"buffer":0,
			"byteLength":5352,
			"byteOffset":16896,
			"target":34963
		},
		{
			"buffer":0,
			"byteLength":6336,
			"byteOffset":22248,
			"target":34962
		},
		{
			"buffer":0,
			"byteLength":6336,
			"byteOffset":28584,
			"target":34962
		},
		{
			"buffer":0,
			"byteLength":4224,
			"byteOffset":34920,
			"target":34962
		},
		{
			"buffer":0,
			"byteLength":5352,
			"byteOffset":39144,
			"target":34963
		}
	],
	"samplers":[
		{
			"magFilter":9729,
			"minFilter":9987
		}
	],
	"buffers":[
		{
			"byteLength":44496,
			"uri":"valena.bin"
		}
	]
}
